<svg width="32" height="24" viewBox="0 0 32 24" fill="none" xmlns="http://www.w3.org/2000/svg">
<g clip-path="url(#clip0_104_1554)">
<path d="M0 0H32V24H0V0Z" fill="#003399"/>
<path d="M15.9996 3.81836L15.644 5.00354L16.2366 5.12206L15.9996 3.81836Z" fill="#FFCC00"/>
<path d="M15.9997 3.81836L16.3552 5.00354L15.7626 5.12206L15.9997 3.81836Z" fill="#FFCC00"/>
<path d="M17.127 4.63796L15.8899 4.66605L15.9603 5.26626L17.127 4.63796Z" fill="#FFCC00"/>
<path d="M17.1272 4.63743L16.1099 5.34183L15.814 4.81486L17.1272 4.63743Z" fill="#FFCC00"/>
<path d="M16.6965 5.9629L16.2875 4.79507L15.7384 5.04751L16.6965 5.9629Z" fill="#FFCC00"/>
<path d="M16.6961 5.96288L15.7118 5.21304L16.1216 4.76884L16.6961 5.96288Z" fill="#FFCC00"/>
<path d="M14.8723 4.63698L16.1094 4.66507L16.039 5.26528L14.8723 4.63698Z" fill="#FFCC00"/>
<path d="M14.8723 4.63743L15.8896 5.34183L16.1855 4.81486L14.8723 4.63743Z" fill="#FFCC00"/>
<path d="M15.303 5.9629L15.712 4.79507L16.2611 5.04751L15.303 5.9629Z" fill="#FFCC00"/>
<path d="M15.3032 5.96288L16.2875 5.21304L15.8777 4.76884L15.3032 5.96288Z" fill="#FFCC00"/>
<path d="M15.9996 18.041L15.644 19.2262L16.2366 19.3447L15.9996 18.041Z" fill="#FFCC00"/>
<path d="M15.9997 18.041L16.3552 19.2262L15.7626 19.3447L15.9997 18.041Z" fill="#FFCC00"/>
<path d="M17.127 18.8596L15.8899 18.8877L15.9603 19.4879L17.127 18.8596Z" fill="#FFCC00"/>
<path d="M17.1272 18.8601L16.1099 19.5645L15.814 19.0375L17.1272 18.8601Z" fill="#FFCC00"/>
<path d="M16.6965 20.1846L16.2875 19.0168L15.7384 19.2692L16.6965 20.1846Z" fill="#FFCC00"/>
<path d="M16.6961 20.1846L15.7118 19.4347L16.1216 18.9905L16.6961 20.1846Z" fill="#FFCC00"/>
<path d="M14.8723 18.8596L16.1094 18.8877L16.039 19.4879L14.8723 18.8596Z" fill="#FFCC00"/>
<path d="M14.8723 18.8601L15.8896 19.5645L16.1855 19.0375L14.8723 18.8601Z" fill="#FFCC00"/>
<path d="M15.303 20.1846L15.712 19.0168L16.2611 19.2692L15.303 20.1846Z" fill="#FFCC00"/>
<path d="M15.3032 20.1846L16.2875 19.4347L15.8777 18.9905L15.3032 20.1846Z" fill="#FFCC00"/>
<path d="M8.88925 10.9297L8.53369 12.1149L9.12628 12.2334L8.88925 10.9297Z" fill="#FFCC00"/>
<path d="M8.88956 10.9297L9.24512 12.1149L8.65252 12.2334L8.88956 10.9297Z" fill="#FFCC00"/>
<path d="M10.0161 11.7493L8.77907 11.7774L8.84948 12.3776L10.0161 11.7493Z" fill="#FFCC00"/>
<path d="M10.0159 11.7497L8.99855 12.4541L8.70272 11.9272L10.0159 11.7497Z" fill="#FFCC00"/>
<path d="M9.58564 13.0742L9.17666 11.9064L8.62758 12.1588L9.58564 13.0742Z" fill="#FFCC00"/>
<path d="M9.5855 13.0742L8.60122 12.3244L9.01097 11.8802L9.5855 13.0742Z" fill="#FFCC00"/>
<path d="M7.76195 11.7493L8.999 11.7774L8.9286 12.3776L7.76195 11.7493Z" fill="#FFCC00"/>
<path d="M7.76222 11.7497L8.77952 12.4541L9.07536 11.9272L7.76222 11.7497Z" fill="#FFCC00"/>
<path d="M8.19219 13.0742L8.60118 11.9064L9.15026 12.1588L8.19219 13.0742Z" fill="#FFCC00"/>
<path d="M8.19233 13.0742L9.17661 12.3244L8.76686 11.8802L8.19233 13.0742Z" fill="#FFCC00"/>
<path d="M11.8349 6.96874L12.8192 6.2189L12.4094 5.7747L11.8349 6.96874Z" fill="#FFCC00"/>
<path d="M11.8348 6.96876L12.2438 5.80093L12.7928 6.05336L11.8348 6.96876Z" fill="#FFCC00"/>
<path d="M11.4048 5.64427L12.4221 6.34866L12.7179 5.8217L11.4048 5.64427Z" fill="#FFCC00"/>
<path d="M11.4045 5.64382L12.6416 5.67191L12.5712 6.27212L11.4045 5.64382Z" fill="#FFCC00"/>
<path d="M12.5318 4.8252L12.1763 6.01038L12.7689 6.1289L12.5318 4.8252Z" fill="#FFCC00"/>
<path d="M12.5319 4.8252L12.8875 6.01038L12.2949 6.1289L12.5319 4.8252Z" fill="#FFCC00"/>
<path d="M13.2281 6.96874L12.2438 6.2189L12.6535 5.7747L13.2281 6.96874Z" fill="#FFCC00"/>
<path d="M13.2282 6.96778L12.8192 5.79995L12.2702 6.05239L13.2282 6.96778Z" fill="#FFCC00"/>
<path d="M13.6589 5.64427L12.6416 6.34866L12.3458 5.8217L13.6589 5.64427Z" fill="#FFCC00"/>
<path d="M13.6589 5.64382L12.4219 5.67191L12.4923 6.27212L13.6589 5.64382Z" fill="#FFCC00"/>
<path d="M10.5917 9.6045L10.1828 8.43667L9.63368 8.68911L10.5917 9.6045Z" fill="#FFCC00"/>
<path d="M10.5916 9.60449L9.60732 8.85464L10.0171 8.41044L10.5916 9.60449Z" fill="#FFCC00"/>
<path d="M9.19843 9.60546L10.1827 8.85562L9.77296 8.41142L9.19843 9.60546Z" fill="#FFCC00"/>
<path d="M9.19854 9.60547L9.60752 8.43765L10.1566 8.69008L9.19854 9.60547Z" fill="#FFCC00"/>
<path d="M8.76832 8.28001L9.78563 8.98441L10.0815 8.45744L8.76832 8.28001Z" fill="#FFCC00"/>
<path d="M8.76781 8.28054L10.0049 8.30863L9.93446 8.90884L8.76781 8.28054Z" fill="#FFCC00"/>
<path d="M11.0225 8.27903L10.0051 8.98343L9.70931 8.45647L11.0225 8.27903Z" fill="#FFCC00"/>
<path d="M11.0227 8.27956L9.78566 8.30765L9.85607 8.90786L11.0227 8.27956Z" fill="#FFCC00"/>
<path d="M9.89518 7.46094L10.2507 8.64612L9.65814 8.76464L9.89518 7.46094Z" fill="#FFCC00"/>
<path d="M9.89511 7.46094L9.53955 8.64612L10.1321 8.76464L9.89511 7.46094Z" fill="#FFCC00"/>
<path d="M11.0234 15.4085L9.7864 15.4366L9.8568 16.0368L11.0234 15.4085Z" fill="#FFCC00"/>
<path d="M11.0237 15.4089L10.0064 16.1133L9.71053 15.5863L11.0237 15.4089Z" fill="#FFCC00"/>
<path d="M10.593 16.7334L10.184 15.5656L9.6349 15.818L10.593 16.7334Z" fill="#FFCC00"/>
<path d="M10.5928 16.7334L9.60854 15.9835L10.0183 15.5393L10.5928 16.7334Z" fill="#FFCC00"/>
<path d="M9.19965 16.7344L10.1839 15.9845L9.77419 15.5403L9.19965 16.7344Z" fill="#FFCC00"/>
<path d="M9.19976 16.7334L9.60874 15.5656L10.1578 15.818L9.19976 16.7334Z" fill="#FFCC00"/>
<path d="M9.8964 14.5898L10.252 15.775L9.65936 15.8935L9.8964 14.5898Z" fill="#FFCC00"/>
<path d="M9.89657 14.5898L9.54102 15.775L10.1336 15.8935L9.89657 14.5898Z" fill="#FFCC00"/>
<path d="M8.76903 15.4085L10.0061 15.4366L9.93568 16.0368L8.76903 15.4085Z" fill="#FFCC00"/>
<path d="M8.76905 15.4089L9.78636 16.1133L10.0822 15.5863L8.76905 15.4089Z" fill="#FFCC00"/>
<path d="M13.5957 17.7942L12.3587 17.8223L12.4291 18.4225L13.5957 17.7942Z" fill="#FFCC00"/>
<path d="M13.5959 17.7937L12.5786 18.4981L12.2828 17.9711L13.5959 17.7937Z" fill="#FFCC00"/>
<path d="M13.1655 19.1201L12.7565 17.9523L12.2074 18.2047L13.1655 19.1201Z" fill="#FFCC00"/>
<path d="M13.1653 19.1201L12.1811 18.3703L12.5908 17.9261L13.1653 19.1201Z" fill="#FFCC00"/>
<path d="M11.7722 19.1201L12.7564 18.3703L12.3467 17.9261L11.7722 19.1201Z" fill="#FFCC00"/>
<path d="M11.7723 19.1201L12.1813 17.9523L12.7303 18.2047L11.7723 19.1201Z" fill="#FFCC00"/>
<path d="M12.4687 16.9756L12.8242 18.1608L12.2316 18.2793L12.4687 16.9756Z" fill="#FFCC00"/>
<path d="M12.4688 16.9756L12.1133 18.1608L12.7059 18.2793L12.4688 16.9756Z" fill="#FFCC00"/>
<path d="M11.3415 17.7942L12.5786 17.8223L12.5082 18.4225L11.3415 17.7942Z" fill="#FFCC00"/>
<path d="M11.3416 17.7937L12.3589 18.4981L12.6547 17.9711L11.3416 17.7937Z" fill="#FFCC00"/>
<path d="M23.1115 10.9287L23.467 12.1139L22.8744 12.2324L23.1115 10.9287Z" fill="#FFCC00"/>
<path d="M23.1114 10.9287L22.7559 12.1139L23.3485 12.2324L23.1114 10.9287Z" fill="#FFCC00"/>
<path d="M21.9844 11.7483L23.2214 11.7764L23.151 12.3766L21.9844 11.7483Z" fill="#FFCC00"/>
<path d="M21.9844 11.7488L23.0017 12.4532L23.2975 11.9262L21.9844 11.7488Z" fill="#FFCC00"/>
<path d="M22.4151 13.0732L22.8241 11.9054L23.3732 12.1579L22.4151 13.0732Z" fill="#FFCC00"/>
<path d="M22.4152 13.0732L23.3995 12.3234L22.9898 11.8792L22.4152 13.0732Z" fill="#FFCC00"/>
<path d="M24.2385 11.7483L23.0015 11.7764L23.0719 12.3766L24.2385 11.7483Z" fill="#FFCC00"/>
<path d="M24.239 11.7488L23.2217 12.4532L22.9259 11.9262L24.239 11.7488Z" fill="#FFCC00"/>
<path d="M23.8078 13.0732L23.3988 11.9054L22.8497 12.1579L23.8078 13.0732Z" fill="#FFCC00"/>
<path d="M23.8077 13.0732L22.8234 12.3234L23.2331 11.8792L23.8077 13.0732Z" fill="#FFCC00"/>
<path d="M20.1653 6.96777L19.1811 6.21792L19.5908 5.77372L20.1653 6.96777Z" fill="#FFCC00"/>
<path d="M20.1652 6.9668L19.7562 5.79898L19.2072 6.05141L20.1652 6.9668Z" fill="#FFCC00"/>
<path d="M20.5962 5.64329L19.5789 6.34769L19.283 5.82072L20.5962 5.64329Z" fill="#FFCC00"/>
<path d="M20.5962 5.64382L19.3592 5.67191L19.4296 6.27212L20.5962 5.64382Z" fill="#FFCC00"/>
<path d="M19.4689 4.82422L19.8245 6.0094L19.2319 6.12792L19.4689 4.82422Z" fill="#FFCC00"/>
<path d="M19.4693 4.82422L19.1138 6.0094L19.7064 6.12792L19.4693 4.82422Z" fill="#FFCC00"/>
<path d="M18.7719 6.96777L19.7562 6.21792L19.3465 5.77372L18.7719 6.96777Z" fill="#FFCC00"/>
<path d="M18.772 6.96778L19.181 5.79995L19.7301 6.05239L18.772 6.96778Z" fill="#FFCC00"/>
<path d="M18.3418 5.64232L19.3591 6.34671L19.655 5.81975L18.3418 5.64232Z" fill="#FFCC00"/>
<path d="M18.3415 5.64284L19.5786 5.67093L19.5082 6.27114L18.3415 5.64284Z" fill="#FFCC00"/>
<path d="M21.4085 9.6045L21.8175 8.43667L22.3666 8.68911L21.4085 9.6045Z" fill="#FFCC00"/>
<path d="M21.4089 9.60449L22.3932 8.85464L21.9834 8.41044L21.4089 9.60449Z" fill="#FFCC00"/>
<path d="M22.8023 9.60449L21.818 8.85464L22.2278 8.41044L22.8023 9.60449Z" fill="#FFCC00"/>
<path d="M22.8022 9.6045L22.3932 8.43667L21.8441 8.68911L22.8022 9.6045Z" fill="#FFCC00"/>
<path d="M23.2327 8.28001L22.2154 8.98441L21.9195 8.45744L23.2327 8.28001Z" fill="#FFCC00"/>
<path d="M23.2327 8.27956L21.9956 8.30765L22.066 8.90786L23.2327 8.27956Z" fill="#FFCC00"/>
<path d="M20.9783 8.27903L21.9956 8.98343L22.2914 8.45647L20.9783 8.27903Z" fill="#FFCC00"/>
<path d="M20.9785 8.27956L22.2156 8.30765L22.1452 8.90786L20.9785 8.27956Z" fill="#FFCC00"/>
<path d="M22.1053 7.46094L21.7498 8.64612L22.3423 8.76464L22.1053 7.46094Z" fill="#FFCC00"/>
<path d="M22.1054 7.46094L22.4609 8.64612L21.8683 8.76464L22.1054 7.46094Z" fill="#FFCC00"/>
<path d="M20.9761 15.4075L22.2131 15.4356L22.1427 16.0358L20.9761 15.4075Z" fill="#FFCC00"/>
<path d="M20.9761 15.4079L21.9934 16.1123L22.2892 15.5854L20.9761 15.4079Z" fill="#FFCC00"/>
<path d="M21.4068 16.7324L21.8158 15.5646L22.3649 15.817L21.4068 16.7324Z" fill="#FFCC00"/>
<path d="M21.4069 16.7324L22.3912 15.9826L21.9815 15.5384L21.4069 16.7324Z" fill="#FFCC00"/>
<path d="M22.8001 16.7334L21.8158 15.9835L22.2256 15.5393L22.8001 16.7334Z" fill="#FFCC00"/>
<path d="M22.8002 16.7324L22.3913 15.5646L21.8422 15.817L22.8002 16.7324Z" fill="#FFCC00"/>
<path d="M22.1034 14.5889L21.7478 15.7741L22.3404 15.8926L22.1034 14.5889Z" fill="#FFCC00"/>
<path d="M22.1032 14.5889L22.4587 15.7741L21.8661 15.8926L22.1032 14.5889Z" fill="#FFCC00"/>
<path d="M23.2305 15.4075L21.9934 15.4356L22.0638 16.0358L23.2305 15.4075Z" fill="#FFCC00"/>
<path d="M23.2302 15.4079L22.2129 16.1123L21.9171 15.5854L23.2302 15.4079Z" fill="#FFCC00"/>
<path d="M18.404 17.7942L19.6411 17.8223L19.5707 18.4225L18.404 17.7942Z" fill="#FFCC00"/>
<path d="M18.4041 17.7937L19.4214 18.4981L19.7172 17.9711L18.4041 17.7937Z" fill="#FFCC00"/>
<path d="M18.8345 19.1191L19.2435 17.9513L19.7926 18.2038L18.8345 19.1191Z" fill="#FFCC00"/>
<path d="M18.8347 19.1191L19.8189 18.3693L19.4092 17.9251L18.8347 19.1191Z" fill="#FFCC00"/>
<path d="M20.2281 19.1191L19.2438 18.3693L19.6535 17.9251L20.2281 19.1191Z" fill="#FFCC00"/>
<path d="M20.2282 19.1191L19.8192 17.9513L19.2702 18.2038L20.2282 19.1191Z" fill="#FFCC00"/>
<path d="M19.5313 16.9756L19.1758 18.1608L19.7684 18.2793L19.5313 16.9756Z" fill="#FFCC00"/>
<path d="M19.5312 16.9756L19.8867 18.1608L19.2941 18.2793L19.5312 16.9756Z" fill="#FFCC00"/>
<path d="M20.6587 17.7942L19.4217 17.8223L19.4921 18.4225L20.6587 17.7942Z" fill="#FFCC00"/>
<path d="M20.6584 17.7937L19.6411 18.4981L19.3453 17.9711L20.6584 17.7937Z" fill="#FFCC00"/>
</g>
<defs>
<clipPath id="clip0_104_1554">
<rect width="32" height="24" fill="white"/>
</clipPath>
</defs>
</svg>
