<svg width="32" height="24" viewBox="0 0 32 24" fill="none" xmlns="http://www.w3.org/2000/svg">
<g clip-path="url(#clip0_104_1847)">
<path d="M0 0H32V8H0V0Z" fill="#FF9933"/>
<path d="M0.000244141 8H32.0002V16H0.000244141V8Z" fill="white"/>
<path d="M0.000244141 16H32.0002V24H0.000244141V16Z" fill="#128807"/>
<path d="M16 15.1998C17.7674 15.1998 19.2 13.7671 19.2 11.9998C19.2 10.2325 17.7674 8.7998 16 8.7998C14.2327 8.7998 12.8 10.2325 12.8 11.9998C12.8 13.7671 14.2327 15.1998 16 15.1998Z" fill="#000088"/>
<path d="M15.9997 14.8002C17.5461 14.8002 18.7997 13.5466 18.7997 12.0002C18.7997 10.4538 17.5461 9.2002 15.9997 9.2002C14.4533 9.2002 13.1997 10.4538 13.1997 12.0002C13.1997 13.5466 14.4533 14.8002 15.9997 14.8002Z" fill="white"/>
<path d="M15.9997 12.5604C16.309 12.5604 16.5597 12.3097 16.5597 12.0004C16.5597 11.6912 16.309 11.4404 15.9997 11.4404C15.6904 11.4404 15.4397 11.6912 15.4397 12.0004C15.4397 12.3097 15.6904 12.5604 15.9997 12.5604Z" fill="#000088"/>
<path d="M18.757 12.5084C18.8359 12.5188 18.9082 12.4633 18.9186 12.3845C18.929 12.3056 18.8735 12.2333 18.7946 12.2229C18.7158 12.2125 18.6434 12.268 18.6331 12.3469C18.6227 12.4257 18.6782 12.4981 18.757 12.5084Z" fill="#000088"/>
<path d="M15.9998 14.7984L16.0958 13.1184L15.9998 12.3184L15.9038 13.1184L15.9998 14.7984Z" fill="#000088"/>
<path d="M18.5314 13.205C18.6048 13.2354 18.6891 13.2005 18.7195 13.127C18.75 13.0536 18.7151 12.9693 18.6416 12.9389C18.5681 12.9085 18.4839 12.9434 18.4534 13.0168C18.423 13.0903 18.4579 13.1745 18.5314 13.205Z" fill="#000088"/>
<path d="M15.2753 14.7035L15.8029 13.1056L15.9172 12.308L15.6174 13.0559L15.2753 14.7035Z" fill="#000088"/>
<path d="M18.1335 13.8181C18.1966 13.8665 18.287 13.8546 18.3354 13.7915C18.3838 13.7284 18.3719 13.638 18.3088 13.5896C18.2457 13.5412 18.1553 13.5531 18.1069 13.6162C18.0585 13.6793 18.0704 13.7697 18.1335 13.8181Z" fill="#000088"/>
<path d="M14.6002 14.4233L15.5234 13.0164L15.8402 12.2755L15.3571 12.9204L14.6002 14.4233Z" fill="#000088"/>
<path d="M17.5901 14.3081C17.6385 14.3712 17.7289 14.3831 17.792 14.3347C17.8551 14.2863 17.867 14.1959 17.8186 14.1328C17.7702 14.0697 17.6798 14.0578 17.6167 14.1062C17.5536 14.1546 17.5417 14.245 17.5901 14.3081Z" fill="#000088"/>
<path d="M14.0203 13.9778L15.2761 12.8577L15.7739 12.2241L15.1404 12.7219L14.0203 13.9778Z" fill="#000088"/>
<path d="M16.9375 14.6427C16.9679 14.7161 17.0521 14.751 17.1256 14.7206C17.1991 14.6902 17.234 14.6059 17.2035 14.5325C17.1731 14.459 17.0889 14.4241 17.0154 14.4545C16.9419 14.485 16.907 14.5692 16.9375 14.6427Z" fill="#000088"/>
<path d="M13.5751 13.4003L15.078 12.6434L15.7228 12.1603L14.982 12.4771L13.5751 13.4003Z" fill="#000088"/>
<path d="M16.2218 14.7946C16.2322 14.8735 16.3045 14.929 16.3833 14.9186C16.4622 14.9082 16.5177 14.8359 16.5073 14.757C16.4969 14.6782 16.4246 14.6227 16.3458 14.6331C16.2669 14.6434 16.2114 14.7158 16.2218 14.7946Z" fill="#000088"/>
<path d="M13.2954 12.7248L14.943 12.3827L15.6909 12.083L14.8933 12.1973L13.2954 12.7248Z" fill="#000088"/>
<path d="M15.4906 14.7575C15.4802 14.8364 15.5357 14.9087 15.6146 14.9191C15.6934 14.9295 15.7657 14.874 15.7761 14.7951C15.7865 14.7163 15.731 14.6439 15.6522 14.6335C15.5733 14.6232 15.501 14.6787 15.4906 14.7575Z" fill="#000088"/>
<path d="M13.1997 12.0003L14.8797 12.0963L15.6797 12.0003L14.8797 11.9043L13.1997 12.0003Z" fill="#000088"/>
<path d="M14.7941 14.5316C14.7636 14.6051 14.7985 14.6893 14.872 14.7198C14.9455 14.7502 15.0297 14.7153 15.0601 14.6418C15.0906 14.5684 15.0557 14.4841 14.9822 14.4537C14.9087 14.4232 14.8245 14.4581 14.7941 14.5316Z" fill="#000088"/>
<path d="M13.2952 11.2751L14.8931 11.8026L15.6907 11.9169L14.9428 11.6172L13.2952 11.2751Z" fill="#000088"/>
<path d="M14.1797 14.1333C14.1313 14.1964 14.1432 14.2867 14.2063 14.3352C14.2694 14.3836 14.3598 14.3717 14.4082 14.3086C14.4566 14.2455 14.4447 14.1551 14.3816 14.1067C14.3185 14.0583 14.2281 14.0702 14.1797 14.1333Z" fill="#000088"/>
<path d="M13.5745 10.6L14.9814 11.5231L15.7223 11.84L15.0774 11.3568L13.5745 10.6Z" fill="#000088"/>
<path d="M13.6899 13.5896C13.6268 13.6381 13.6149 13.7285 13.6633 13.7915C13.7118 13.8546 13.8022 13.8665 13.8652 13.8181C13.9283 13.7697 13.9402 13.6793 13.8918 13.6162C13.8434 13.5531 13.753 13.5412 13.6899 13.5896Z" fill="#000088"/>
<path d="M14.02 10.0203L15.1401 11.2761L15.7737 11.7739L15.2759 11.1404L14.02 10.0203Z" fill="#000088"/>
<path d="M13.3571 12.9375C13.2836 12.9679 13.2487 13.0521 13.2792 13.1256C13.3096 13.1991 13.3938 13.234 13.4673 13.2035C13.5408 13.1731 13.5757 13.0889 13.5452 13.0154C13.5148 12.9419 13.4306 12.907 13.3571 12.9375Z" fill="#000088"/>
<path d="M14.5997 9.57506L15.3566 11.078L15.8397 11.7228L15.5229 10.982L14.5997 9.57506Z" fill="#000088"/>
<path d="M13.2049 12.2215C13.126 12.2319 13.0705 12.3043 13.0809 12.3831C13.0913 12.462 13.1636 12.5175 13.2425 12.5071C13.3213 12.4967 13.3768 12.4244 13.3665 12.3455C13.3561 12.2667 13.2837 12.2112 13.2049 12.2215Z" fill="#000088"/>
<path d="M15.2754 9.29439L15.6175 10.942L15.9173 11.6899L15.803 10.8923L15.2754 9.29439Z" fill="#000088"/>
<path d="M13.2432 11.4906C13.1644 11.4802 13.092 11.5357 13.0816 11.6146C13.0713 11.6934 13.1268 11.7657 13.2056 11.7761C13.2845 11.7865 13.3568 11.731 13.3672 11.6522C13.3776 11.5733 13.3221 11.501 13.2432 11.4906Z" fill="#000088"/>
<path d="M16.0004 9.19969L15.9044 10.8797L16.0004 11.6797L16.0964 10.8797L16.0004 9.19969Z" fill="#000088"/>
<path d="M13.4686 10.7941C13.3952 10.7636 13.3109 10.7985 13.2805 10.872C13.25 10.9455 13.2849 11.0297 13.3584 11.0601C13.4319 11.0906 13.5161 11.0557 13.5466 10.9822C13.577 10.9087 13.5421 10.8245 13.4686 10.7941Z" fill="#000088"/>
<path d="M16.7247 9.29548L16.1971 10.8934L16.0828 11.691L16.3826 10.9431L16.7247 9.29548Z" fill="#000088"/>
<path d="M13.867 10.1809C13.8039 10.1325 13.7135 10.1444 13.6651 10.2075C13.6167 10.2706 13.6286 10.361 13.6917 10.4094C13.7548 10.4578 13.8452 10.4459 13.8936 10.3828C13.942 10.3197 13.9301 10.2293 13.867 10.1809Z" fill="#000088"/>
<path d="M17.4003 9.57574L16.4771 10.9827L16.1603 11.7235L16.6434 11.0787L17.4003 9.57574Z" fill="#000088"/>
<path d="M14.4104 9.6909C14.3619 9.62781 14.2715 9.61591 14.2085 9.66432C14.1454 9.71274 14.1335 9.80313 14.1819 9.86623C14.2303 9.92932 14.3207 9.94122 14.3838 9.89281C14.4469 9.84439 14.4588 9.754 14.4104 9.6909Z" fill="#000088"/>
<path d="M17.9802 10.0203L16.7244 11.1403L16.2266 11.7739L16.8601 11.2761L17.9802 10.0203Z" fill="#000088"/>
<path d="M15.0623 9.35733C15.0319 9.28386 14.9476 9.24897 14.8741 9.2794C14.8007 9.30984 14.7658 9.39407 14.7962 9.46755C14.8266 9.54102 14.9109 9.57591 14.9844 9.54548C15.0578 9.51505 15.0927 9.43081 15.0623 9.35733Z" fill="#000088"/>
<path d="M18.4247 10.5997L16.9218 11.3566L16.277 11.8397L17.0178 11.5229L18.4247 10.5997Z" fill="#000088"/>
<path d="M15.7785 9.20538C15.7681 9.12653 15.6957 9.07103 15.6169 9.08141C15.538 9.09179 15.4825 9.16413 15.4929 9.24297C15.5033 9.32182 15.5756 9.37733 15.6545 9.36695C15.7333 9.35657 15.7888 9.28423 15.7785 9.20538Z" fill="#000088"/>
<path d="M18.7046 11.2752L17.057 11.6173L16.3091 11.917L17.1067 11.8027L18.7046 11.2752Z" fill="#000088"/>
<path d="M16.5094 9.24248C16.5198 9.16363 16.4643 9.0913 16.3854 9.08092C16.3066 9.07054 16.2343 9.12604 16.2239 9.20489C16.2135 9.28374 16.269 9.35607 16.3478 9.36645C16.4267 9.37683 16.499 9.32133 16.5094 9.24248Z" fill="#000088"/>
<path d="M18.8001 11.9997L17.1201 11.9037L16.3201 11.9997L17.1201 12.0957L18.8001 11.9997Z" fill="#000088"/>
<path d="M17.2055 9.46839C17.2359 9.39491 17.201 9.31067 17.1275 9.28024C17.0541 9.24981 16.9698 9.2847 16.9394 9.35817C16.9089 9.43165 16.9438 9.51588 17.0173 9.54632C17.0908 9.57675 17.175 9.54186 17.2055 9.46839Z" fill="#000088"/>
<path d="M18.7043 12.7249L17.1064 12.1974L16.3088 12.0831L17.0567 12.3828L18.7043 12.7249Z" fill="#000088"/>
<path d="M17.8198 9.8687C17.8682 9.8056 17.8563 9.71521 17.7932 9.66679C17.7301 9.61838 17.6397 9.63028 17.5913 9.69337C17.5429 9.75647 17.5548 9.84686 17.6179 9.89528C17.681 9.94369 17.7714 9.93179 17.8198 9.8687Z" fill="#000088"/>
<path d="M18.425 13.402L17.0181 12.4788L16.2772 12.162L16.9221 12.6451L18.425 13.402Z" fill="#000088"/>
<path d="M18.3096 10.4113C18.3727 10.3629 18.3846 10.2725 18.3362 10.2094C18.2878 10.1463 18.1974 10.1344 18.1343 10.1828C18.0712 10.2313 18.0593 10.3217 18.1077 10.3848C18.1561 10.4478 18.2465 10.4597 18.3096 10.4113Z" fill="#000088"/>
<path d="M17.98 13.9807L16.8599 12.7248L16.2263 12.227L16.7241 12.8606L17.98 13.9807Z" fill="#000088"/>
<path d="M18.6419 11.0625C18.7154 11.0321 18.7503 10.9479 18.7199 10.8744C18.6894 10.8009 18.6052 10.766 18.5317 10.7965C18.4582 10.8269 18.4234 10.9111 18.4538 10.9846C18.4842 11.0581 18.5685 11.093 18.6419 11.0625Z" fill="#000088"/>
<path d="M17.3996 14.4249L16.6427 12.922L16.1596 12.2772L16.4764 13.018L17.3996 14.4249Z" fill="#000088"/>
<path d="M18.7951 11.7794C18.874 11.7691 18.9295 11.6967 18.9191 11.6179C18.9087 11.539 18.8364 11.4835 18.7575 11.4939C18.6787 11.5043 18.6232 11.5766 18.6335 11.6555C18.6439 11.7343 18.7163 11.7898 18.7951 11.7794Z" fill="#000088"/>
<path d="M16.7243 14.7056L16.3823 13.058L16.0825 12.3101L16.1968 13.1077L16.7243 14.7056Z" fill="#000088"/>
</g>
<defs>
<clipPath id="clip0_104_1847">
<rect width="32" height="24" fill="white"/>
</clipPath>
</defs>
</svg>
