<svg width="32" height="24" viewBox="0 0 32 24" fill="none" xmlns="http://www.w3.org/2000/svg">
<path fill-rule="evenodd" clip-rule="evenodd" d="M-2.00024 0H33.9998V24H-2.00024V0Z" fill="#165D31"/>
<path fill-rule="evenodd" clip-rule="evenodd" d="M7.07015 6.80131C7.03265 7.36381 6.9764 8.34818 7.45921 8.45131C8.03577 8.50756 7.71702 7.47631 7.92796 7.28881C7.96546 7.19506 8.03577 7.19506 8.04046 7.31225V8.18881C8.04046 8.47006 8.22796 8.55443 8.36859 8.61068C8.51859 8.60131 8.62171 8.61068 8.67796 8.75131L8.75296 10.2654C8.75296 10.2654 9.09984 10.3685 9.11859 9.41693C9.13265 8.85443 9.00609 8.39037 9.08109 8.28256C9.08109 8.17475 9.22171 8.17006 9.31546 8.22162C9.46546 8.32475 9.53109 8.456 9.76546 8.40912C10.1217 8.306 10.3373 8.13256 10.342 7.86068C10.335 7.5935 10.2794 7.32984 10.178 7.08256C10.1967 7.03568 10.1123 6.90912 10.1311 6.86225C10.192 6.96537 10.2905 6.956 10.3092 6.86225C10.2483 6.66537 10.1545 6.47318 10.0045 6.3935C9.87796 6.281 9.69046 6.29975 9.62952 6.53412C9.59202 6.80131 9.72327 7.11537 9.91546 7.37787C9.95765 7.47631 10.0139 7.64506 9.99046 7.79506C9.88421 7.85131 9.78577 7.83256 9.69515 7.73881C9.69515 7.73881 9.4139 7.52787 9.4139 7.47631C9.4889 6.99818 9.42796 6.94193 9.38577 6.806C9.35765 6.62318 9.26859 6.56225 9.19827 6.44037C9.12796 6.36537 9.03421 6.36537 8.98734 6.44037C8.86077 6.656 8.92171 7.12006 9.01077 7.331C9.0764 7.52318 9.17484 7.64506 9.12796 7.64506C9.09046 7.75287 9.01077 7.72475 8.94984 7.59818C8.88145 7.33179 8.84836 7.05757 8.8514 6.78256C8.82796 6.56693 8.79984 6.10756 8.65452 5.98568C8.57015 5.87318 8.44359 5.92943 8.39671 6.03256C8.38425 6.24197 8.38895 6.45204 8.41077 6.66068C8.50452 7.00756 8.53734 7.31693 8.58421 7.6685C8.59827 8.14193 8.31234 7.87475 8.3264 7.63568C8.38789 7.33514 8.38309 7.02481 8.31234 6.72631C8.26546 6.60443 8.2139 6.57631 8.09671 6.59506C8.00765 6.59506 7.77796 6.8435 7.71234 7.26537C7.71234 7.26537 7.65609 7.481 7.63265 7.67318C7.59984 7.88881 7.45921 8.04818 7.35609 7.64506C7.27171 7.34975 7.21546 6.63256 7.07484 6.80131H7.07015Z" fill="white"/>
<path fill-rule="evenodd" clip-rule="evenodd" d="M8.64014 9.10332L7.14014 9.8252C7.1542 9.48301 7.84795 8.86895 8.32607 8.86426C8.63076 8.86895 8.55576 8.98144 8.63545 9.10332H8.64014Z" fill="white"/>
<path fill-rule="evenodd" clip-rule="evenodd" d="M8.37248 9.57153C7.58498 11.6106 10.224 11.8965 10.5194 9.65591C10.5475 9.56216 10.66 9.4731 10.6787 9.6231C10.6178 11.6528 8.63498 11.7887 8.29748 11.1512C8.21818 10.9318 8.1785 10.7001 8.18029 10.4668C8.13342 10.0684 7.92248 10.2231 7.88967 10.6168C7.85685 10.8372 7.86623 10.8981 7.86623 11.109C7.96935 12.7122 10.524 12.0231 10.9412 10.7012C11.1615 9.96997 10.9037 9.43091 11.0209 9.43091C11.274 9.70278 11.6303 9.46841 11.71 9.37466C11.7428 9.32779 11.8272 9.29497 11.8834 9.35591C12.0803 9.49654 12.4272 9.43091 12.5022 9.18247C12.5459 8.93247 12.574 8.67935 12.5865 8.4231C12.4225 8.46997 12.3053 8.50278 12.2912 8.5731L12.2584 8.78872C12.2444 8.85904 12.1084 8.85904 12.099 8.76997C12.0381 8.48872 11.785 8.45591 11.6303 8.88716C11.5319 8.97154 11.3444 8.99029 11.3256 8.86372C11.349 8.5731 11.2319 8.5356 10.9975 8.67154L10.7725 6.97466C10.8662 6.97466 10.96 7.04497 11.049 6.93247C10.9553 6.62778 10.7444 6.00903 10.6272 5.96216C10.5756 5.89653 10.5287 5.93872 10.4537 5.95747C10.3319 5.99497 10.2194 6.0981 10.2569 6.30435C10.3975 7.1856 10.4912 7.85591 10.6365 8.74185C10.66 8.84028 10.5756 8.97622 10.4631 8.96216C10.2756 8.8356 10.2287 8.57778 9.9006 8.58716C9.66623 8.58716 9.40373 8.84497 9.37092 9.08872C9.32873 9.2856 9.31467 9.49653 9.37092 9.66528C9.53498 9.86216 9.73185 9.84341 9.90529 9.80122C10.0459 9.74029 10.1631 9.59966 10.2147 9.63247C10.2475 9.67466 10.2194 10.1434 9.54436 10.4997C9.13654 10.6872 8.80842 10.7247 8.63498 10.3918C8.52717 10.1809 8.64436 9.38872 8.37248 9.57153Z" fill="white"/>
<path fill-rule="evenodd" clip-rule="evenodd" d="M11.7338 7.49984C11.8885 7.44359 12.6385 6.58109 12.6385 6.58109L12.526 6.48734C12.4854 6.45297 12.4854 6.41859 12.526 6.38422C12.7135 6.27172 12.6525 6.03734 12.5588 5.92484C12.4949 5.89485 12.425 5.8797 12.3544 5.88051C12.2837 5.88132 12.2142 5.89808 12.151 5.92953C12.0197 6.05609 11.9916 6.25766 12.0947 6.37953C12.1932 6.42641 12.2916 6.52953 12.226 6.58578C11.9166 6.91391 11.0775 7.48109 11.176 7.49984C11.1947 7.52797 11.715 7.52797 11.7291 7.49984H11.7338ZM7.18692 10.5467C6.90567 10.9967 6.88223 11.667 7.03692 11.8686C7.1213 11.9623 7.25723 12.0045 7.35567 11.9717C7.5338 11.8967 7.61348 11.5358 7.5713 11.4092C7.51505 11.3155 7.4588 11.3045 7.40255 11.3764C7.28067 11.6295 7.22911 11.4561 7.21505 11.3155C7.20161 11.0773 7.21418 10.8384 7.25255 10.603C7.28536 10.4061 7.25255 10.4623 7.18692 10.5467ZM19.2385 9.82953C18.9666 9.23891 18.5869 8.65766 18.4697 8.43734C18.1044 7.85987 17.7166 7.29694 17.3072 6.74984C17.0166 6.40297 17.7854 6.89516 17.2135 6.20141L16.7963 5.84984C16.7025 5.78422 16.4775 5.66234 16.44 5.85922C16.4213 6.03734 16.4307 6.13109 16.4588 6.27641C16.4822 6.37016 16.6229 6.53422 16.6932 6.62797C17.6542 7.90084 18.4982 9.25792 19.215 10.6827C19.3369 10.6217 19.3088 9.92797 19.2385 9.82953Z" fill="white"/>
<path fill-rule="evenodd" clip-rule="evenodd" d="M18.0432 11.7887C17.987 11.8497 18.1745 12.1075 18.4182 12.1075C18.8214 12.0606 19.1776 11.8356 19.5057 11.2356C19.6391 11.036 19.7241 10.8081 19.7542 10.57C19.7939 9.43205 19.7027 8.29332 19.4823 7.17623C19.4682 7.08248 19.4823 6.96998 19.4917 6.94185C19.5198 6.90904 19.6089 6.94185 19.6557 6.86216C19.7261 6.79185 19.4682 6.20591 19.3276 5.9856C19.2807 5.88248 19.2573 5.81685 19.1729 5.99498C19.0711 6.19152 19.0226 6.41133 19.0323 6.63248C19.2245 7.96841 19.2854 9.1356 19.4073 10.4715C19.4214 10.6028 19.4026 10.7903 19.3136 10.8653C18.96 11.2593 18.5271 11.574 18.0432 11.7887ZM23.5042 11.784C23.2136 11.9528 23.2136 12.145 23.4479 12.1497C23.8511 12.1028 24.3292 12.07 24.6573 11.5731C24.7732 11.3391 24.8402 11.0839 24.8542 10.8231C24.9132 9.70269 24.8392 8.57923 24.6339 7.47623C24.6245 7.38248 24.5823 7.16216 24.5964 7.13404C24.6245 7.06841 24.7557 7.13873 24.8026 7.06373C24.8682 6.99341 24.4604 6.46841 24.3151 6.24341C24.2682 6.14029 24.2495 6.07466 24.1604 6.25279C24.0651 6.45086 24.0355 6.67423 24.0761 6.89029C24.2917 8.34341 24.4511 9.43091 24.4839 10.7153C24.4651 10.8372 24.4604 10.9028 24.4042 11.0575C24.2776 11.2169 24.137 11.4231 24.0057 11.5215C23.8745 11.6153 23.5932 11.709 23.5042 11.784Z" fill="white"/>
<path fill-rule="evenodd" clip-rule="evenodd" d="M23.7196 10.4854C23.7227 10.1447 23.7211 9.84786 23.7149 9.59473C23.7119 9.37639 23.664 9.161 23.5743 8.96192C23.4899 8.76973 23.5415 8.61505 23.4993 8.4088C23.4618 8.20255 23.4711 7.89317 23.4149 7.65411C23.3961 7.56036 23.3493 7.25567 23.3633 7.22286C23.3868 7.15723 23.4758 7.22286 23.5227 7.14786C23.5883 7.07755 23.2883 6.30411 23.1383 6.0838C23.0868 5.98536 22.9836 6.01817 22.8665 6.17755C22.7493 6.28536 22.7915 6.52442 22.8383 6.75411C23.1243 8.26817 23.3446 9.64161 23.2977 11.0807C23.279 11.2025 23.7196 10.715 23.7196 10.4854ZM21.5774 8.61036C21.3946 8.60098 21.0149 8.24942 20.9024 8.04786C20.884 7.9986 20.8761 7.94601 20.8794 7.89352C20.8826 7.84103 20.8968 7.7898 20.9211 7.74317C20.9915 7.6963 21.0946 7.64942 21.1743 7.6963C21.1743 7.6963 21.254 7.8088 21.2399 7.82286C21.3336 7.86973 21.3805 7.8463 21.3899 7.80411C21.3946 7.7338 21.3618 7.69161 21.3618 7.61661C21.404 7.40098 21.643 7.36817 21.7368 7.50411C21.8024 7.58848 21.8305 7.76192 21.8352 7.87911C21.8352 7.94005 21.7415 7.86973 21.6805 7.87911C21.629 7.89786 21.6149 7.96348 21.6102 8.01973C21.6008 8.17442 21.5821 8.42286 21.5774 8.60567V8.61036ZM18.2118 10.8604C18.2586 10.401 18.193 9.58067 18.1883 9.3088C18.1633 8.60959 18.1054 7.91195 18.0149 7.21817C17.9586 6.82442 18.1743 7.26036 18.1461 7.03067C18.0758 6.64161 17.8602 6.37442 17.6024 6.02286C17.5227 5.90567 17.5227 5.88223 17.3961 6.05098C17.2555 6.36505 17.3774 6.58536 17.4149 6.8338C17.5977 7.64005 17.7055 8.38067 17.7571 9.11661C17.8111 9.8811 17.8174 10.6482 17.7758 11.4135C17.9165 11.4182 18.1321 11.1932 18.2118 10.8604Z" fill="white"/>
<path fill-rule="evenodd" clip-rule="evenodd" d="M24.3437 10.125C24.0203 9.58123 23.5375 8.99998 23.4062 8.77967C22.9716 8.17268 22.515 7.58166 22.0375 7.0078C21.639 6.58592 22.225 6.93748 21.9625 6.60936C21.7422 6.3703 21.6812 6.29061 21.489 6.1453C21.3953 6.08436 21.339 5.96717 21.3015 6.16873C21.2866 6.34332 21.2835 6.51872 21.2922 6.69373C21.2922 6.77342 21.3765 6.92811 21.4515 7.02186C22.4218 8.21717 23.4859 9.43592 24.339 10.9687C24.4609 10.9078 24.4187 10.2187 24.339 10.125H24.3437Z" fill="white"/>
<path fill-rule="evenodd" clip-rule="evenodd" d="M9.74631 9.12693C9.72287 9.16912 9.67131 9.22068 9.69006 9.27224C9.72131 9.31599 9.76193 9.33631 9.81193 9.33318C9.8635 9.33318 9.9385 9.34724 9.95256 9.31912C9.98381 9.28162 9.99318 9.23006 9.98068 9.16443C9.92443 9.02381 9.77443 9.08006 9.74631 9.12693Z" fill="#165D31"/>
<path fill-rule="evenodd" clip-rule="evenodd" d="M20.6027 16.9919C21.0339 17.0106 21.3152 17.0153 21.6949 17.0575L22.1449 17.0106C22.6417 16.9637 22.6605 17.7184 22.6605 17.7184C22.6605 18.1637 22.4871 18.1872 22.2667 18.2341C22.1402 18.2528 22.0792 18.1591 22.0089 18.0653C21.9029 18.0993 21.79 18.1057 21.6808 18.0841C21.4996 18.0778 21.3199 18.07 21.1417 18.0606C20.9542 18.0466 20.8511 18.0841 20.6589 18.0653C20.6214 18.1262 20.5652 18.2106 20.4527 18.1872C20.3589 18.1731 20.2417 17.9059 20.2746 17.695C20.3449 17.545 20.3214 17.5966 20.3214 17.5309C18.5589 17.4841 16.7824 17.4044 15.0574 17.4278C13.7074 17.4325 12.3761 17.4887 11.0402 17.545C10.3277 17.5356 9.78394 17.4231 9.40894 16.8747C9.44644 16.8747 11.2277 16.9731 11.748 16.9403C12.7089 16.9309 13.5902 16.8512 14.5699 16.8231C16.5011 16.8559 18.4183 16.8559 20.3496 16.9919C20.1621 16.8653 20.1621 16.57 20.4433 16.495C20.4667 16.4762 20.4808 16.6403 20.523 16.6356C20.7527 16.6216 20.6496 16.9309 20.6027 16.9919ZM12.8402 6.34187C12.5496 7.17624 13.0089 8.09499 13.3277 8.00593C13.5621 8.09968 13.7027 7.65905 13.7964 7.18093C13.8667 7.04499 13.9136 7.03093 13.9464 7.10124C13.9371 7.73874 13.9933 7.88405 14.1574 8.07624C14.523 8.35749 14.8277 8.11374 14.8511 8.0903L15.1324 7.80436C15.2011 7.73562 15.2808 7.73093 15.3714 7.7903C15.4605 7.86999 15.4464 8.00593 15.6339 8.09968C15.7933 8.1653 16.1261 8.11843 16.2058 7.98249C16.3089 7.79968 16.3371 7.73874 16.3839 7.67311C16.4589 7.57468 16.5855 7.61686 16.5855 7.64968C16.5714 7.70593 16.4964 7.75749 16.548 7.86061C16.6417 7.92624 16.6605 7.88405 16.7121 7.86999C16.8996 7.77624 17.0402 7.37312 17.0402 7.37312C17.0449 7.22312 16.9605 7.23249 16.9042 7.26999L16.7589 7.36843C16.6652 7.38249 16.4917 7.44343 16.4027 7.30749C16.3136 7.14811 16.3136 6.91843 16.248 6.75437C16.248 6.74499 16.1261 6.49655 16.2386 6.48249C16.2949 6.49187 16.4121 6.52468 16.4308 6.42624C16.4871 6.3278 16.3089 6.05124 16.1824 5.91061C16.0746 5.79343 15.9246 5.77937 15.7792 5.90124C15.6761 5.99499 15.6902 6.09811 15.6714 6.19655C15.6544 6.26714 15.654 6.34073 15.6703 6.4115C15.6865 6.48227 15.719 6.5483 15.7652 6.60436C15.8683 6.80124 16.0511 7.05905 15.9902 7.42468C15.9902 7.42468 15.8824 7.59343 15.6949 7.56999C15.6152 7.55593 15.4886 7.52311 15.423 7.01686C15.3714 6.64186 15.4324 6.10749 15.273 5.85905C15.2121 5.70436 15.1699 5.55905 15.0292 5.81686C14.9917 5.91999 14.8277 6.07468 14.9449 6.38874C15.0558 6.67175 15.0882 6.97946 15.0386 7.27937C14.9683 7.38249 14.9542 7.4153 14.8652 7.51374C14.7433 7.65437 14.6074 7.61686 14.5042 7.5653C14.4105 7.50436 14.3355 7.47155 14.2886 7.26061C14.298 6.93249 14.3167 6.39343 14.2558 6.28093C14.1667 6.1028 14.0214 6.16843 13.9605 6.22468C13.6823 6.53487 13.4957 6.91622 13.4214 7.32624C13.3371 7.59812 13.248 7.51843 13.1871 7.41062C13.0371 7.26999 13.023 6.15905 12.8402 6.34187Z" fill="white"/>
<path fill-rule="evenodd" clip-rule="evenodd" d="M13.7213 8.16144C13.8572 8.06769 13.7963 8.00206 13.9932 8.19894C14.2473 8.64856 14.3948 9.15051 14.4244 9.66613C14.415 9.788 14.4994 9.863 14.5416 9.83488C14.5604 9.55363 15.2494 9.15988 15.8822 9.10363C15.976 9.08019 15.9291 8.89738 15.9432 8.80363C15.9057 8.45206 16.14 8.13331 16.4682 8.10988C16.9182 8.1755 17.0682 8.41456 17.0775 8.7755C17.026 9.47863 16.2947 9.59581 15.8869 9.65206C15.826 9.6755 15.7979 9.70363 15.8869 9.73644L17.6025 9.74581L17.6916 9.79269C17.701 9.83956 17.6635 9.80206 17.5979 9.91456C17.5041 10.0806 17.4451 10.264 17.4244 10.4536C16.9135 10.6224 16.3838 10.688 15.8494 10.7583C15.6619 10.8521 15.5682 10.9786 15.6057 11.1193C15.6713 11.2739 16.0838 11.4333 16.0838 11.438C16.1635 11.4849 16.2525 11.6021 16.0604 11.8411C15.226 11.8036 14.5744 11.4474 14.3494 10.9458C14.2838 10.8943 14.2088 10.9458 14.1619 11.0114C13.8338 11.4333 13.515 11.8083 12.9572 12.0146C12.6291 12.0989 12.2869 11.963 12.1275 11.7474C12.0197 11.6208 12.0244 11.4849 11.9869 11.4568C11.8041 11.5364 10.2572 12.1927 10.4541 11.8833C10.8291 11.4849 11.4854 11.1849 12.0572 10.7911C12.0994 10.6552 12.1744 10.2052 12.3994 10.0599C12.4135 10.0599 12.3666 10.3224 12.3713 10.4349C12.3713 10.5286 12.3619 10.5614 12.3807 10.538C12.4229 10.5146 13.1166 9.96613 13.1775 9.79738C13.2432 9.70363 13.1916 9.45988 13.1916 9.4505C13.0604 9.113 12.8775 9.08488 12.8119 8.91613C12.751 8.69581 12.7791 8.44269 12.9057 8.36769C13.0213 8.27081 13.1447 8.27863 13.276 8.39113C13.4166 8.51769 13.5385 8.76613 13.576 8.94894C13.5525 9.01925 13.3885 8.90206 13.3416 8.93488C13.4318 9.03856 13.4918 9.16504 13.515 9.3005C13.6088 9.68488 13.5807 9.83488 13.4869 10.0833C13.1775 10.7349 12.7838 10.9271 12.4369 11.1708C12.4275 11.1708 12.4229 11.3349 12.5494 11.4239C12.5963 11.4708 12.7791 11.4943 12.99 11.4239C13.4398 11.1725 13.8039 10.7921 14.0354 10.3318C14.0752 9.98082 14.0368 9.62543 13.9229 9.29113C13.7869 8.97706 13.6275 8.53175 13.6275 8.52238C13.6229 8.3255 13.6369 8.25988 13.7213 8.16144ZM9.23067 6.35206C9.42754 6.44581 9.80255 6.40363 9.7838 6.08488L9.77442 5.93956C9.73692 5.84581 9.62442 5.86925 9.60098 5.963C9.59161 5.99581 9.61504 6.04738 9.58692 6.06144C9.56817 6.08019 9.50723 6.07081 9.50723 5.98175C9.50411 5.9505 9.49317 5.9255 9.47442 5.90675C9.46817 5.9005 9.45411 5.89738 9.43223 5.89738C9.40411 5.89738 9.40411 5.90206 9.39005 5.9255C9.3838 5.94738 9.37911 5.97238 9.37598 6.0005C9.37286 6.02863 9.36036 6.04425 9.33848 6.04738C9.31036 6.04738 9.31505 6.04738 9.29161 6.038C9.27911 6.02863 9.2713 6.013 9.26817 5.99113L9.25411 5.91613C9.24473 5.90363 9.22911 5.89425 9.20723 5.888C9.09942 5.888 9.09005 6.01456 9.09942 6.06144C9.09005 6.07081 9.08536 6.29113 9.23067 6.35206Z" fill="white"/>
<path fill-rule="evenodd" clip-rule="evenodd" d="M15.0201 8.7984C15.217 8.89215 15.6905 8.84059 15.5733 8.5359L15.5639 8.3859C15.5217 8.29215 15.4139 8.31558 15.3905 8.41402C15.3811 8.44215 15.4045 8.49371 15.3717 8.50777C15.3576 8.52652 15.292 8.51715 15.2967 8.43277C15.2936 8.40152 15.2826 8.37496 15.2639 8.35308C15.2545 8.34683 15.2389 8.34371 15.217 8.34371C15.1936 8.34371 15.1936 8.35308 15.1795 8.37652C15.1701 8.3984 15.1655 8.4234 15.1655 8.45152C15.1592 8.47652 15.1451 8.49215 15.1233 8.4984C15.0998 8.4984 15.1045 8.4984 15.0858 8.48433C15.0701 8.47496 15.0608 8.4609 15.0576 8.44215L15.0436 8.36715C15.0342 8.35152 15.0186 8.34215 14.9967 8.33902C14.8889 8.33902 14.8795 8.4609 14.8842 8.50777C14.8795 8.51715 14.8748 8.74215 15.0248 8.7984H15.0201ZM18.3951 7.7859C18.592 7.87965 18.9623 7.83746 18.9483 7.5234L18.9389 7.3734C18.8967 7.27965 18.7889 7.30309 18.7655 7.39684C18.7561 7.42965 18.7795 7.48121 18.7467 7.49996C18.7326 7.51402 18.667 7.50465 18.6717 7.41558C18.6686 7.38433 18.6576 7.35934 18.6389 7.34059C18.6295 7.33434 18.6139 7.33121 18.592 7.33121C18.5701 7.33121 18.5576 7.34215 18.5545 7.36402L18.5405 7.43434C18.5373 7.46559 18.5233 7.48121 18.4983 7.48121C18.4608 7.48121 18.4795 7.48121 18.4608 7.47183C18.4451 7.46246 18.4358 7.4484 18.4326 7.42965C18.4326 7.3984 18.428 7.37184 18.4186 7.34996C18.4061 7.33746 18.3905 7.32965 18.3717 7.32652C18.2639 7.32652 18.2545 7.4484 18.2592 7.49527C18.2545 7.50465 18.2498 7.72496 18.3998 7.7859H18.3951ZM20.1436 10.3312C19.8014 10.7203 19.9514 11.3625 20.0311 11.5031C20.1436 11.7281 20.2326 11.8734 20.453 11.9859C20.6545 12.1312 20.8139 12.0421 20.8983 11.939C21.0998 11.7281 21.1045 11.189 21.1983 11.0859C21.2639 10.889 21.4326 10.9218 21.5123 11.0109C21.5876 11.1161 21.6873 11.2013 21.8029 11.2593C21.9904 11.4234 22.2155 11.4562 22.4405 11.3062C22.5905 11.2171 22.6889 11.1093 22.778 10.889C22.8717 10.6265 22.8248 9.40777 22.8014 8.6859L22.6045 7.67809C22.6045 7.66871 22.5811 7.19996 22.5576 7.09215C22.5576 7.04527 22.5436 7.03121 22.5905 7.0359C22.642 7.08277 22.6467 7.08277 22.6842 7.09683C22.7311 7.10621 22.778 7.01715 22.7451 6.94215L22.2764 6.07027C22.2389 6.03277 22.1873 5.99527 22.1264 6.07965C22.0897 6.11159 22.0606 6.1513 22.0411 6.19589C22.0217 6.24048 22.0124 6.28883 22.0139 6.33746C22.0326 6.54683 22.053 6.75465 22.0748 6.9609L22.2623 8.02027C22.3233 8.77027 22.3373 9.38902 22.3983 10.1437C22.3889 10.4625 22.2905 10.739 22.1967 10.7812C22.1967 10.7812 22.0561 10.8609 21.9623 10.7718C21.892 10.7437 21.6154 10.3078 21.6154 10.3078C21.4748 10.1812 21.3811 10.214 21.2826 10.3078C21.0014 10.5796 20.8795 11.0765 20.6873 11.4234C20.6405 11.5031 20.4998 11.564 20.3498 11.4187C19.9654 10.889 20.1905 10.139 20.1436 10.3312ZM18.4842 5.93902C18.6623 6.00933 18.7842 6.37027 18.7467 6.5484C18.7092 6.75933 18.6155 6.99371 18.5498 6.96559C18.4748 6.93746 18.5967 6.74996 18.5264 6.55309C18.4889 6.42184 18.2451 6.18746 18.2733 6.12184C18.2264 5.97652 18.3764 5.9109 18.4842 5.93433V5.93902Z" fill="white"/>
<path fill-rule="evenodd" clip-rule="evenodd" d="M20.7156 10.5472C20.7485 10.116 20.6875 9.8535 20.6781 9.60037C20.6688 9.34725 20.3922 7.416 20.336 7.2285C20.2656 6.86287 20.6031 7.18162 20.5656 6.966C20.4485 6.7035 20.1625 6.31443 20.0735 6.08475C20.0172 5.991 20.0406 5.89725 19.9188 6.06131C19.8133 6.34884 19.7764 6.65701 19.811 6.96131C20.1016 8.47537 20.3969 9.73162 20.35 11.1707C20.4906 11.1707 20.6453 10.8566 20.7156 10.5472ZM23.7344 6.54881C23.8985 6.6285 23.9922 7.0785 23.9735 7.20506C23.9406 7.43943 23.8563 7.69256 23.7953 7.65975C23.725 7.63162 23.8094 7.31287 23.7766 7.21443C23.7391 7.07381 23.5188 6.82068 23.5422 6.74568C23.4953 6.58631 23.636 6.52068 23.7344 6.54881ZM11.7485 9.73162C11.9031 9.79256 11.9969 10.1207 11.9828 10.2144C11.9453 10.3879 11.8656 10.5754 11.8047 10.5472C11.7438 10.5285 11.8188 10.2941 11.7906 10.2191C11.7766 10.0457 11.561 9.95193 11.5656 9.87693C11.5281 9.73631 11.6594 9.71287 11.7531 9.73162H11.7485Z" fill="white"/>
<path fill-rule="evenodd" clip-rule="evenodd" d="M15.4797 10.2279C15.6766 10.2373 15.775 10.3967 15.5922 10.4623C15.4047 10.5232 15.2313 10.5748 15.2266 10.8373C15.2969 11.2123 15.1329 11.0811 15.0391 11.0342C14.9266 10.9498 14.6079 10.7529 14.561 10.3311C14.5563 10.2326 14.636 10.1436 14.7625 10.1436C14.95 10.1951 15.2313 10.1998 15.4797 10.2279Z" fill="#165D31"/>
<path fill-rule="evenodd" clip-rule="evenodd" d="M7.62774 5.8307C7.85274 5.89632 7.8668 6.23382 7.85274 6.33226C7.81993 6.51039 7.74024 6.70257 7.68399 6.67914C7.61837 6.6557 7.68399 6.41195 7.65118 6.33695C7.61837 6.23382 7.42618 6.03695 7.44493 5.9807C7.40274 5.86351 7.53868 5.80726 7.62774 5.8307ZM12.1231 7.4057C11.9449 7.49945 11.8793 7.7807 11.9871 7.94945C12.0902 8.09007 12.2496 8.03851 12.2684 8.03851C12.4418 8.05726 12.5449 7.71507 12.5449 7.71507C12.5449 7.71507 12.5496 7.62132 12.3481 7.80414C12.259 7.8182 12.2543 7.78539 12.2309 7.73851C12.2094 7.64927 12.2176 7.55546 12.2543 7.47132C12.2871 7.38695 12.2215 7.34945 12.1231 7.4057ZM13.4356 5.69945C13.3418 5.76039 13.1684 5.9432 13.1637 6.14945C13.159 6.26664 13.1356 6.26664 13.2106 6.33695C13.2715 6.42132 13.3231 6.41664 13.4356 6.3557C13.4638 6.33828 13.488 6.31506 13.5066 6.28758C13.5252 6.26011 13.5377 6.229 13.5434 6.19632C13.5715 6.06507 13.4027 6.26195 13.384 6.11195C13.3465 5.97132 13.4543 5.91507 13.5574 5.78382C13.5574 5.69007 13.5574 5.62914 13.4309 5.69945H13.4356ZM14.4856 5.88695C14.4444 6.05766 14.4193 6.23186 14.4106 6.40726C14.3824 6.53851 14.5512 6.59476 14.6215 6.42601C14.734 6.12132 14.734 5.99007 14.7434 5.86351C14.7106 5.66195 14.5746 5.66664 14.4856 5.88695ZM21.1418 9.27601C21.1606 9.25257 22.0793 8.60101 22.0793 8.60101C22.1731 8.5682 22.1496 8.93851 22.1074 8.93382C21.8224 9.2083 21.4947 9.43468 21.1371 9.60414C21.0902 9.63695 21.0481 9.3557 21.1371 9.27601H21.1418ZM21.9715 9.26664C22.1356 9.34632 22.2012 9.81976 22.1824 9.94632C22.1824 10.1994 22.0277 10.3963 21.9621 10.3682C21.8965 10.3354 21.9715 10.0541 21.9387 9.9557C21.9012 9.81507 21.7652 9.55726 21.7887 9.48226C21.7418 9.32289 21.8731 9.23851 21.9762 9.26664H21.9715ZM16.534 11.301C16.61 11.2123 16.6984 11.1349 16.7965 11.0713C16.8902 11.0244 16.9746 11.1088 16.9699 11.1041C16.984 11.1979 16.9137 11.2776 16.9371 11.3994C16.9559 11.4463 16.9699 11.5026 17.059 11.4838C17.2043 11.3666 17.3402 11.3573 17.4809 11.3526C17.5981 11.3573 17.6027 11.5494 17.5277 11.5494C17.2606 11.6057 17.1434 11.6807 16.9512 11.751C16.8574 11.8073 16.7824 11.7369 16.7824 11.7323C16.7824 11.7276 16.7309 11.6807 16.7637 11.5588C16.7731 11.4588 16.7356 11.4119 16.6512 11.4182C16.5949 11.4557 16.5387 11.4744 16.5106 11.4041C16.4918 11.3604 16.4996 11.326 16.534 11.301ZM22.9371 11.5541C22.9746 11.601 23.0027 11.6479 22.9324 11.7323L22.759 11.8823C22.7309 11.9291 22.7121 12.0135 22.8059 12.0369C22.9746 12.0838 23.3684 11.826 23.3684 11.8213C23.434 11.7744 23.4152 11.6807 23.4059 11.6807C23.3684 11.6385 23.284 11.6666 23.2277 11.6573C23.1996 11.6573 23.1106 11.6479 23.1527 11.5635C23.1845 11.5222 23.2097 11.4764 23.2277 11.4276C23.2559 11.3744 23.2246 11.3323 23.134 11.301C23.0356 11.2823 22.9934 11.2916 22.8856 11.301C22.8356 11.3073 22.8059 11.3432 22.7965 11.4088C22.8012 11.5166 22.8668 11.5119 22.9371 11.5494V11.5541Z" fill="white"/>
<path fill-rule="evenodd" clip-rule="evenodd" d="M16.5674 8.89216C16.544 8.93903 16.4596 8.93903 16.3799 8.89216C16.3002 8.84528 16.2533 8.77028 16.2815 8.7281C16.3096 8.68591 16.3893 8.68591 16.469 8.7281C16.5487 8.77028 16.5908 8.84997 16.5674 8.89216ZM12.3955 6.37966C12.3487 6.39372 12.283 6.35154 12.2549 6.28591C12.2268 6.22029 12.2408 6.16403 12.2877 6.14997C12.3346 6.13591 12.3955 6.18278 12.4283 6.24372C12.4612 6.30466 12.4424 6.37028 12.3908 6.38435L12.3955 6.37966ZM20.6502 17.5781C21.0908 17.5968 21.5033 17.5781 21.9393 17.6015C22.019 17.6718 21.9627 17.8359 21.9112 17.8265L21.5455 17.8125C21.5408 17.6718 21.1846 17.6953 21.194 17.8172C21.0018 17.8406 20.8283 17.8125 20.6315 17.8031C20.5752 17.7328 20.5846 17.6062 20.6502 17.5781Z" fill="#165D31"/>
</svg>
