<svg width="378" height="168" viewBox="0 0 378 168" fill="none" xmlns="http://www.w3.org/2000/svg">
<g filter="url(#filter0_d_144_725)">
<path d="M13.4907 23.3764C13.4907 18.328 17.5833 14.2354 22.6318 14.2354H64.4049H97.9138L107.115 25.212L115.319 34.8972V128.624C115.319 133.672 111.226 137.765 106.178 137.765H22.6318C17.5833 137.765 13.4907 133.672 13.4907 128.624V23.3764Z" fill="url(#paint0_linear_144_725)"/>
</g>
<path opacity="0.85" d="M4.41064 6H64.1165H103.412H123.822V29.4168V146H4.41064V6Z" stroke="#DAD6F5" stroke-width="1.02941"/>
<path opacity="0.85" d="M113.528 6H118.631H123.733V11.8542V16.2054" stroke="#A78EBA" stroke-width="1.44118"/>
<path opacity="0.85" d="M113.528 145.912H118.631H123.733V140.057V135.706" stroke="#A78EBA" stroke-width="1.44118"/>
<path opacity="0.85" d="M14.6177 6H9.51499H4.41231V11.8542V16.2054" stroke="#A78EBA" stroke-width="1.44118"/>
<path opacity="0.85" d="M14.6177 145.912H9.51499H4.41231V140.057V135.706" stroke="#A78EBA" stroke-width="1.44118"/>
<path opacity="0.85" d="M37.961 41.0609H40.8725V39.6324H37.961V37.995H41.147V36.5444H36.4438V44.2368H41.2023V42.7862H37.961V41.0609ZM46.3921 41.5994V40.2368H42.271V41.5994H46.3921ZM47.8197 44.2368H49.3358V36.5444H47.8197V44.2368ZM55.2102 41.2368L51.9136 36.5444H50.7595V44.2368H52.2765V39.5334L55.5732 44.2368H56.7264V36.5444H55.2102V41.2368ZM61.9342 44.2368L64.5271 36.5444H62.8682L61.0002 42.4566L59.1212 36.5444H57.4723L60.0552 44.2368H61.9342ZM71.3979 43.2368C72.178 42.4566 72.5621 41.5115 72.5621 40.3906C72.5621 39.2697 72.178 38.3247 71.3979 37.5555C70.6177 36.7753 69.6726 36.3906 68.5627 36.3906C67.4527 36.3906 66.5077 36.7753 65.7275 37.5555C64.9584 38.3247 64.5733 39.2697 64.5733 40.3906C64.5733 41.5115 64.9584 42.4566 65.7275 43.2368C66.5077 44.006 67.4527 44.3906 68.5627 44.3906C69.6726 44.3906 70.6177 44.006 71.3979 43.2368ZM66.7932 42.2038C66.3207 41.7313 66.0794 41.1269 66.0794 40.3906C66.0794 39.6544 66.3207 39.05 66.7932 38.5774C67.2658 38.1049 67.8589 37.8632 68.5627 37.8632C69.2654 37.8632 69.8596 38.1049 70.3322 38.5774C70.8047 39.05 71.046 39.6544 71.046 40.3906C71.046 41.1269 70.8047 41.7313 70.3322 42.2038C69.8596 42.6764 69.2654 42.9071 68.5627 42.9071C67.8589 42.9071 67.2658 42.6764 66.7932 42.2038ZM73.6288 44.2368H75.1449V36.5444H73.6288V44.2368ZM80.217 44.3906C81.6236 44.3906 82.8652 43.6874 83.5247 42.5774L82.2167 41.8192C81.8548 42.4896 81.0957 42.9071 80.217 42.9071C79.47 42.9071 78.8658 42.6764 78.4043 42.2038C77.9529 41.7313 77.7227 41.1269 77.7227 40.3906C77.7227 39.6434 77.9529 39.039 78.4043 38.5665C78.8658 38.0939 79.47 37.8632 80.217 37.8632C81.0957 37.8632 81.8327 38.2698 82.2167 38.9621L83.5247 38.2038C82.8652 37.094 81.6125 36.3906 80.217 36.3906C79.0629 36.3906 78.1068 36.7753 77.3487 37.5445C76.5906 38.3028 76.2166 39.2588 76.2166 40.3906C76.2166 41.5225 76.5906 42.4675 77.3487 43.2368C78.1068 44.006 79.0629 44.3906 80.217 44.3906ZM85.9728 41.0609H88.8844V39.6324H85.9728V37.995H89.1599V36.5444H84.4567V44.2368H89.2142V42.7862H85.9728V41.0609Z" fill="#987AAE"/>
<g opacity="0.85" filter="url(#filter1_d_144_725)">
<path d="M97.9087 14.2354L115.51 34.8972H99.4392C98.5939 34.8972 97.9087 34.212 97.9087 33.3667V14.2354Z" fill="url(#paint1_linear_144_725)" fill-opacity="0.53" shape-rendering="crispEdges"/>
</g>
<rect opacity="0.85" x="27.6938" y="62.0156" width="71.7806" height="5.00795" rx="1.95881" fill="#987AAE"/>
<rect opacity="0.75" x="28.0845" y="79.4795" width="71.7806" height="5.00795" rx="1.95881" fill="#987AAE"/>
<rect opacity="0.6" x="28.0825" y="96.1709" width="71.7806" height="5.00795" rx="1.95881" fill="#987AAE"/>
<rect opacity="0.5" x="28.0845" y="112.866" width="71.7806" height="5.00795" rx="1.95881" fill="#C1AFCE"/>
<path d="M124.118 85.5405H4.11768V49.5405H124.118V85.5405Z" fill="url(#paint2_linear_144_725)"/>
<path d="M4.11768 85.5405H124.118" stroke="#987AAE" stroke-width="1.02941"/>
<g filter="url(#filter2_f_144_725)">
<path d="M4.11768 85.5405H124.118" stroke="#987AAE" stroke-width="1.02941"/>
</g>
<rect x="176.118" width="165.402" height="130" rx="6.96429" fill="url(#paint3_linear_144_725)"/>
<g clip-path="url(#clip0_144_725)">
<circle cx="195.404" cy="19.8665" r="10" fill="#E9E1F9"/>
<path d="M195.789 21.5997C197.336 21.5997 198.589 20.346 198.589 18.7996C198.589 17.2532 197.336 15.9995 195.789 15.9995C194.243 15.9995 192.989 17.2532 192.989 18.7996C192.989 20.346 194.243 21.5997 195.789 21.5997Z" stroke="#7F5D98" stroke-width="0.6" stroke-miterlimit="10" stroke-linecap="round" stroke-linejoin="round"/>
<path d="M191.588 22.9995L193.809 20.7791" stroke="#7F5D98" stroke-width="0.6" stroke-miterlimit="10" stroke-linecap="round" stroke-linejoin="round"/>
<g clip-path="url(#clip1_144_725)">
<path d="M215.128 10.6861C215.896 10.6861 216.533 10.9555 217.04 11.4941C217.552 12.0328 217.808 12.6968 217.808 13.4861C217.808 14.2701 217.552 14.9341 217.04 15.4781C216.533 16.0168 215.896 16.2861 215.128 16.2861H212.928V10.6861H215.128ZM215.128 15.4061C215.656 15.4061 216.085 15.2248 216.416 14.8621C216.752 14.4995 216.92 14.0408 216.92 13.4861C216.92 12.9261 216.752 12.4675 216.416 12.1101C216.085 11.7475 215.656 11.5661 215.128 11.5661H213.848V15.4061H215.128ZM219.271 14.6541C219.335 14.9581 219.482 15.1928 219.711 15.3581C219.94 15.5181 220.22 15.5981 220.551 15.5981C221.01 15.5981 221.354 15.4328 221.583 15.1021L222.295 15.5181C221.9 16.0995 221.316 16.3901 220.543 16.3901C219.892 16.3901 219.367 16.1928 218.967 15.7981C218.567 15.3981 218.367 14.8941 218.367 14.2861C218.367 13.6888 218.564 13.1901 218.959 12.7901C219.354 12.3848 219.86 12.1821 220.479 12.1821C221.066 12.1821 221.546 12.3875 221.919 12.7981C222.298 13.2088 222.487 13.7075 222.487 14.2941C222.487 14.3848 222.476 14.5048 222.455 14.6541H219.271ZM219.263 13.9501H221.615C221.556 13.6248 221.42 13.3795 221.207 13.2141C220.999 13.0488 220.754 12.9661 220.471 12.9661C220.151 12.9661 219.884 13.0541 219.671 13.2301C219.458 13.4061 219.322 13.6461 219.263 13.9501ZM225.354 13.1181H224.362V15.0381C224.362 15.2035 224.399 15.3235 224.474 15.3981C224.549 15.4675 224.658 15.5075 224.802 15.5181C224.951 15.5235 225.135 15.5208 225.354 15.5101V16.2861C224.693 16.3661 224.218 16.3101 223.93 16.1181C223.642 15.9208 223.498 15.5608 223.498 15.0381V13.1181H222.762V12.2861H223.498V11.4221L224.362 11.1661V12.2861H225.354V13.1181ZM226.654 14.6541C226.718 14.9581 226.864 15.1928 227.094 15.3581C227.323 15.5181 227.603 15.5981 227.934 15.5981C228.392 15.5981 228.736 15.4328 228.966 15.1021L229.678 15.5181C229.283 16.0995 228.699 16.3901 227.926 16.3901C227.275 16.3901 226.75 16.1928 226.35 15.7981C225.95 15.3981 225.75 14.8941 225.75 14.2861C225.75 13.6888 225.947 13.1901 226.342 12.7901C226.736 12.3848 227.243 12.1821 227.862 12.1821C228.448 12.1821 228.928 12.3875 229.302 12.7981C229.68 13.2088 229.87 13.7075 229.87 14.2941C229.87 14.3848 229.859 14.5048 229.838 14.6541H226.654ZM226.646 13.9501H228.998C228.939 13.6248 228.803 13.3795 228.59 13.2141C228.382 13.0488 228.136 12.9661 227.854 12.9661C227.534 12.9661 227.267 13.0541 227.054 13.2301C226.84 13.4061 226.704 13.6461 226.646 13.9501ZM232.495 16.3901C231.892 16.3901 231.388 16.1875 230.983 15.7821C230.583 15.3768 230.383 14.8781 230.383 14.2861C230.383 13.6888 230.583 13.1901 230.983 12.7901C231.388 12.3848 231.892 12.1821 232.495 12.1821C232.884 12.1821 233.239 12.2755 233.559 12.4621C233.879 12.6488 234.119 12.8995 234.279 13.2141L233.535 13.6461C233.444 13.4541 233.305 13.3048 233.119 13.1981C232.937 13.0861 232.727 13.0301 232.487 13.0301C232.135 13.0301 231.839 13.1501 231.599 13.3901C231.364 13.6301 231.247 13.9288 231.247 14.2861C231.247 14.6435 231.364 14.9421 231.599 15.1821C231.839 15.4221 232.135 15.5421 232.487 15.5421C232.721 15.5421 232.932 15.4861 233.119 15.3741C233.311 15.2621 233.455 15.1128 233.551 14.9261L234.295 15.3501C234.124 15.6701 233.879 15.9235 233.559 16.1101C233.239 16.2968 232.884 16.3901 232.495 16.3901ZM237.151 13.1181H236.159V15.0381C236.159 15.2035 236.196 15.3235 236.271 15.3981C236.346 15.4675 236.455 15.5075 236.599 15.5181C236.748 15.5235 236.932 15.5208 237.151 15.5101V16.2861C236.49 16.3661 236.015 16.3101 235.727 16.1181C235.439 15.9208 235.295 15.5608 235.295 15.0381V13.1181H234.559V12.2861H235.295V11.4221L236.159 11.1661V12.2861H237.151V13.1181Z" fill="black"/>
<path d="M212.832 22.3843H213.239V26.4468H212.832V22.3843ZM214.414 24.3053C214.414 24.4368 214.472 24.5413 214.588 24.6187C214.704 24.696 214.845 24.756 215.012 24.7986C215.178 24.8411 215.344 24.8895 215.511 24.9437C215.677 24.9939 215.818 25.081 215.934 25.2048C216.05 25.3248 216.108 25.4834 216.108 25.6807C216.108 25.9283 216.01 26.1295 215.812 26.2843C215.619 26.439 215.367 26.5164 215.058 26.5164C214.779 26.5164 214.541 26.4545 214.344 26.3307C214.151 26.2069 214.015 26.0463 213.938 25.849L214.263 25.6575C214.317 25.8084 214.414 25.9283 214.553 26.0173C214.696 26.1024 214.864 26.145 215.058 26.145C215.248 26.145 215.406 26.1082 215.534 26.0347C215.662 25.9573 215.725 25.8393 215.725 25.6807C215.725 25.5492 215.667 25.4447 215.551 25.3673C215.435 25.2899 215.294 25.23 215.128 25.1874C214.961 25.1448 214.795 25.0984 214.628 25.0481C214.462 24.9939 214.321 24.9069 214.205 24.787C214.089 24.6631 214.031 24.5026 214.031 24.3053C214.031 24.0692 214.124 23.8719 214.309 23.7133C214.499 23.5547 214.737 23.4753 215.023 23.4753C215.259 23.4753 215.466 23.5295 215.644 23.6378C215.822 23.7423 215.954 23.8855 216.039 24.0673L215.72 24.253C215.607 23.9822 215.375 23.8468 215.023 23.8468C214.857 23.8468 214.714 23.8874 214.594 23.9687C214.474 24.046 214.414 24.1582 214.414 24.3053ZM216.873 24.3053C216.873 24.4368 216.931 24.5413 217.048 24.6187C217.164 24.696 217.305 24.756 217.471 24.7986C217.638 24.8411 217.804 24.8895 217.97 24.9437C218.137 24.9939 218.278 25.081 218.394 25.2048C218.51 25.3248 218.568 25.4834 218.568 25.6807C218.568 25.9283 218.469 26.1295 218.272 26.2843C218.079 26.439 217.827 26.5164 217.518 26.5164C217.239 26.5164 217.001 26.4545 216.804 26.3307C216.61 26.2069 216.475 26.0463 216.398 25.849L216.723 25.6575C216.777 25.8084 216.873 25.9283 217.013 26.0173C217.156 26.1024 217.324 26.145 217.518 26.145C217.707 26.145 217.866 26.1082 217.994 26.0347C218.121 25.9573 218.185 25.8393 218.185 25.6807C218.185 25.5492 218.127 25.4447 218.011 25.3673C217.895 25.2899 217.754 25.23 217.587 25.1874C217.421 25.1448 217.255 25.0984 217.088 25.0481C216.922 24.9939 216.781 24.9069 216.665 24.787C216.548 24.6631 216.49 24.5026 216.49 24.3053C216.49 24.0692 216.583 23.8719 216.769 23.7133C216.959 23.5547 217.197 23.4753 217.483 23.4753C217.719 23.4753 217.926 23.5295 218.104 23.6378C218.282 23.7423 218.413 23.8855 218.498 24.0673L218.179 24.253C218.067 23.9822 217.835 23.8468 217.483 23.8468C217.316 23.8468 217.173 23.8874 217.053 23.9687C216.933 24.046 216.873 24.1582 216.873 24.3053ZM221.222 23.545H221.605V26.4468H221.222V25.9941C221.005 26.3423 220.68 26.5164 220.247 26.5164C219.895 26.5164 219.616 26.41 219.411 26.1972C219.21 25.9806 219.109 25.6904 219.109 25.3267V23.545H219.492V25.3267C219.492 25.5859 219.56 25.7871 219.695 25.9303C219.835 26.0734 220.03 26.145 220.281 26.145C220.56 26.145 220.786 26.0579 220.96 25.8838C221.135 25.7059 221.222 25.4331 221.222 25.0655V23.545ZM223.756 23.4753C224.185 23.4753 224.531 23.6282 224.794 23.9338C225.061 24.2356 225.195 24.5935 225.195 25.0075C225.195 25.0501 225.191 25.11 225.183 25.1874H222.635C222.674 25.4814 222.798 25.7155 223.007 25.8896C223.22 26.0599 223.481 26.145 223.79 26.145C224.011 26.145 224.2 26.1005 224.359 26.0115C224.522 25.9187 224.643 25.7987 224.725 25.6517L225.061 25.849C224.934 26.0541 224.76 26.2166 224.539 26.3365C224.318 26.4564 224.067 26.5164 223.785 26.5164C223.328 26.5164 222.957 26.3733 222.67 26.087C222.384 25.8006 222.241 25.437 222.241 24.9959C222.241 24.5626 222.382 24.2008 222.664 23.9106C222.947 23.6204 223.311 23.4753 223.756 23.4753ZM223.756 23.8468C223.454 23.8468 223.2 23.9377 222.995 24.1195C222.794 24.2975 222.674 24.5297 222.635 24.816H224.8C224.761 24.5103 224.643 24.2724 224.446 24.1021C224.249 23.9319 224.019 23.8468 223.756 23.8468ZM225.993 24.3053C225.993 24.4368 226.051 24.5413 226.167 24.6187C226.283 24.696 226.424 24.756 226.59 24.7986C226.757 24.8411 226.923 24.8895 227.089 24.9437C227.256 24.9939 227.397 25.081 227.513 25.2048C227.629 25.3248 227.687 25.4834 227.687 25.6807C227.687 25.9283 227.589 26.1295 227.391 26.2843C227.198 26.439 226.946 26.5164 226.637 26.5164C226.358 26.5164 226.12 26.4545 225.923 26.3307C225.729 26.2069 225.594 26.0463 225.517 25.849L225.842 25.6575C225.896 25.8084 225.993 25.9283 226.132 26.0173C226.275 26.1024 226.443 26.145 226.637 26.145C226.826 26.145 226.985 26.1082 227.113 26.0347C227.24 25.9573 227.304 25.8393 227.304 25.6807C227.304 25.5492 227.246 25.4447 227.13 25.3673C227.014 25.2899 226.873 25.23 226.706 25.1874C226.54 25.1448 226.374 25.0984 226.207 25.0481C226.041 24.9939 225.9 24.9069 225.784 24.787C225.668 24.6631 225.61 24.5026 225.61 24.3053C225.61 24.0692 225.702 23.8719 225.888 23.7133C226.078 23.5547 226.316 23.4753 226.602 23.4753C226.838 23.4753 227.045 23.5295 227.223 23.6378C227.401 23.7423 227.532 23.8855 227.618 24.0673L227.298 24.253C227.186 23.9822 226.954 23.8468 226.602 23.8468C226.436 23.8468 226.292 23.8874 226.172 23.9687C226.053 24.046 225.993 24.1582 225.993 24.3053ZM231.402 22.3843C231.955 22.3843 232.412 22.5816 232.772 22.9762C233.135 23.367 233.317 23.8468 233.317 24.4155C233.317 24.9843 233.135 25.466 232.772 25.8606C232.412 26.2514 231.955 26.4468 231.402 26.4468H229.835V22.3843H231.402ZM231.402 26.0637C231.847 26.0637 232.211 25.9051 232.493 25.5878C232.779 25.2706 232.923 24.8798 232.923 24.4155C232.923 23.9512 232.779 23.5605 232.493 23.2432C232.211 22.9259 231.847 22.7673 231.402 22.7673H230.241V26.0637H231.402ZM235.295 23.4753C235.724 23.4753 236.07 23.6282 236.334 23.9338C236.6 24.2356 236.734 24.5935 236.734 25.0075C236.734 25.0501 236.73 25.11 236.722 25.1874H234.175C234.213 25.4814 234.337 25.7155 234.546 25.8896C234.759 26.0599 235.02 26.145 235.329 26.145C235.55 26.145 235.74 26.1005 235.898 26.0115C236.061 25.9187 236.183 25.7987 236.264 25.6517L236.6 25.849C236.473 26.0541 236.299 26.2166 236.078 26.3365C235.858 26.4564 235.606 26.5164 235.324 26.5164C234.867 26.5164 234.496 26.3733 234.209 26.087C233.923 25.8006 233.78 25.437 233.78 24.9959C233.78 24.5626 233.921 24.2008 234.204 23.9106C234.486 23.6204 234.85 23.4753 235.295 23.4753ZM235.295 23.8468C234.993 23.8468 234.739 23.9377 234.534 24.1195C234.333 24.2975 234.213 24.5297 234.175 24.816H236.339C236.301 24.5103 236.183 24.2724 235.985 24.1021C235.788 23.9319 235.558 23.8468 235.295 23.8468ZM238.796 23.9164H237.96V25.6749C237.96 25.8335 237.991 25.9477 238.053 26.0173C238.115 26.0831 238.208 26.1179 238.332 26.1218C238.456 26.1218 238.61 26.1179 238.796 26.1102V26.4468C238.39 26.5087 238.084 26.4797 237.879 26.3597C237.678 26.2398 237.577 26.0115 237.577 25.6749V23.9164H236.968V23.545H237.577V22.8486L237.96 22.7325V23.545H238.796V23.9164ZM240.599 23.4753C241.029 23.4753 241.375 23.6282 241.638 23.9338C241.905 24.2356 242.039 24.5935 242.039 25.0075C242.039 25.0501 242.035 25.11 242.027 25.1874H239.479C239.518 25.4814 239.642 25.7155 239.851 25.8896C240.064 26.0599 240.325 26.145 240.634 26.145C240.855 26.145 241.044 26.1005 241.203 26.0115C241.366 25.9187 241.487 25.7987 241.569 25.6517L241.905 25.849C241.778 26.0541 241.604 26.2166 241.383 26.3365C241.162 26.4564 240.911 26.5164 240.629 26.5164C240.172 26.5164 239.801 26.3733 239.514 26.087C239.228 25.8006 239.085 25.437 239.085 24.9959C239.085 24.5626 239.226 24.2008 239.508 23.9106C239.791 23.6204 240.155 23.4753 240.599 23.4753ZM240.599 23.8468C240.298 23.8468 240.044 23.9377 239.839 24.1195C239.638 24.2975 239.518 24.5297 239.479 24.816H241.644C241.605 24.5103 241.487 24.2724 241.29 24.1021C241.093 23.9319 240.863 23.8468 240.599 23.8468ZM244 26.5164C243.563 26.5164 243.199 26.3713 242.909 26.0812C242.619 25.7871 242.474 25.4253 242.474 24.9959C242.474 24.5664 242.619 24.2066 242.909 23.9164C243.199 23.6224 243.563 23.4753 244 23.4753C244.287 23.4753 244.544 23.545 244.772 23.6843C245 23.8197 245.167 24.0035 245.271 24.2356L244.958 24.4155C244.881 24.2414 244.755 24.1041 244.581 24.0035C244.41 23.899 244.217 23.8468 244 23.8468C243.679 23.8468 243.408 23.959 243.188 24.1834C242.967 24.4039 242.857 24.6748 242.857 24.9959C242.857 25.317 242.967 25.5898 243.188 25.8142C243.408 26.0347 243.679 26.145 244 26.145C244.217 26.145 244.41 26.0947 244.581 25.9941C244.751 25.8896 244.884 25.7503 244.981 25.5762L245.3 25.762C245.18 25.9941 245.004 26.1779 244.772 26.3133C244.54 26.4487 244.283 26.5164 244 26.5164ZM247.388 23.9164H246.552V25.6749C246.552 25.8335 246.583 25.9477 246.645 26.0173C246.707 26.0831 246.8 26.1179 246.924 26.1218C247.048 26.1218 247.202 26.1179 247.388 26.1102V26.4468C246.982 26.5087 246.676 26.4797 246.471 26.3597C246.27 26.2398 246.169 26.0115 246.169 25.6749V23.9164H245.56V23.545H246.169V22.8486L246.552 22.7325V23.545H247.388V23.9164ZM249.192 23.4753C249.621 23.4753 249.967 23.6282 250.23 23.9338C250.497 24.2356 250.631 24.5935 250.631 25.0075C250.631 25.0501 250.627 25.11 250.619 25.1874H248.071C248.11 25.4814 248.234 25.7155 248.443 25.8896C248.656 26.0599 248.917 26.145 249.226 26.145C249.447 26.145 249.636 26.1005 249.795 26.0115C249.958 25.9187 250.079 25.7987 250.161 25.6517L250.497 25.849C250.37 26.0541 250.196 26.2166 249.975 26.3365C249.754 26.4564 249.503 26.5164 249.221 26.5164C248.764 26.5164 248.393 26.3733 248.106 26.087C247.82 25.8006 247.677 25.437 247.677 24.9959C247.677 24.5626 247.818 24.2008 248.1 23.9106C248.383 23.6204 248.747 23.4753 249.192 23.4753ZM249.192 23.8468C248.89 23.8468 248.636 23.9377 248.431 24.1195C248.23 24.2975 248.11 24.5297 248.071 24.816H250.236C250.197 24.5103 250.079 24.2724 249.882 24.1021C249.685 23.9319 249.455 23.8468 249.192 23.8468ZM253.736 22.3843H254.119V26.4468H253.736V25.878C253.469 26.3036 253.078 26.5164 252.563 26.5164C252.149 26.5164 251.795 26.3694 251.501 26.0753C251.211 25.7813 251.066 25.4215 251.066 24.9959C251.066 24.5703 251.211 24.2105 251.501 23.9164C251.795 23.6224 252.149 23.4753 252.563 23.4753C253.078 23.4753 253.469 23.6881 253.736 24.1137V22.3843ZM251.78 25.8142C252 26.0347 252.271 26.145 252.592 26.145C252.913 26.145 253.184 26.0347 253.405 25.8142C253.625 25.5898 253.736 25.317 253.736 24.9959C253.736 24.6748 253.625 24.4039 253.405 24.1834C253.184 23.959 252.913 23.8468 252.592 23.8468C252.271 23.8468 252 23.959 251.78 24.1834C251.559 24.4039 251.449 24.6748 251.449 24.9959C251.449 25.317 251.559 25.5898 251.78 25.8142Z" fill="black"/>
</g>
</g>
<circle cx="195.404" cy="50.0452" r="10" fill="#FEE2CA"/>
<path d="M197.563 47.6594H195.903V45.9997L197.563 47.6594Z" stroke="#CC5E00" stroke-width="0.6" stroke-miterlimit="10" stroke-linecap="round" stroke-linejoin="round"/>
<path d="M198.178 49.4248C198.761 50.0082 198.761 50.954 198.178 51.5373C197.595 52.1207 196.649 52.1207 196.065 51.5373C195.482 50.954 195.482 50.0082 196.065 49.4248C196.649 48.8415 197.595 48.8415 198.178 49.4248Z" stroke="#CC5E00" stroke-width="0.6" stroke-miterlimit="10" stroke-linecap="round" stroke-linejoin="round"/>
<path d="M199.586 52.9458L198.178 51.5375" stroke="#CC5E00" stroke-width="0.6" stroke-miterlimit="10" stroke-linecap="round" stroke-linejoin="round"/>
<path d="M197.563 49.0535V47.6595L195.903 45.9998H192.251C191.885 45.9998 191.587 46.297 191.587 46.6637V53.3359C191.587 53.7025 191.885 53.9998 192.251 53.9998H196.899C197.265 53.9998 197.563 53.7025 197.563 53.3359V51.9087" stroke="#CC5E00" stroke-width="0.6" stroke-miterlimit="10" stroke-linecap="round" stroke-linejoin="round"/>
<g clip-path="url(#clip2_144_725)">
<path d="M215.128 40.8646C215.896 40.8646 216.533 41.1339 217.04 41.6726C217.552 42.2113 217.808 42.8753 217.808 43.6646C217.808 44.4486 217.552 45.1126 217.04 45.6566C216.533 46.1953 215.896 46.4646 215.128 46.4646H212.928V40.8646H215.128ZM215.128 45.5846C215.656 45.5846 216.085 45.4033 216.416 45.0406C216.752 44.6779 216.92 44.2193 216.92 43.6646C216.92 43.1046 216.752 42.6459 216.416 42.2886C216.085 41.9259 215.656 41.7446 215.128 41.7446H213.848V45.5846H215.128ZM219.407 41.7046C219.3 41.8113 219.172 41.8646 219.023 41.8646C218.874 41.8646 218.743 41.8113 218.631 41.7046C218.524 41.5926 218.471 41.4619 218.471 41.3126C218.471 41.1633 218.524 41.0353 218.631 40.9286C218.738 40.8166 218.868 40.7606 219.023 40.7606C219.178 40.7606 219.308 40.8166 219.415 40.9286C219.522 41.0353 219.575 41.1633 219.575 41.3126C219.575 41.4619 219.519 41.5926 219.407 41.7046ZM218.591 46.4646V42.4646H219.455V46.4646H218.591ZM223.626 42.4646H224.49V46.4646H223.626V45.8886C223.301 46.3419 222.834 46.5686 222.226 46.5686C221.677 46.5686 221.207 46.3659 220.818 45.9606C220.429 45.5499 220.234 45.0513 220.234 44.4646C220.234 43.8726 220.429 43.3739 220.818 42.9686C221.207 42.5633 221.677 42.3606 222.226 42.3606C222.834 42.3606 223.301 42.5846 223.626 43.0326V42.4646ZM221.458 45.3846C221.698 45.6246 221.999 45.7446 222.362 45.7446C222.725 45.7446 223.026 45.6246 223.266 45.3846C223.506 45.1393 223.626 44.8326 223.626 44.4646C223.626 44.0966 223.506 43.7926 223.266 43.5526C223.026 43.3073 222.725 43.1846 222.362 43.1846C221.999 43.1846 221.698 43.3073 221.458 43.5526C221.218 43.7926 221.098 44.0966 221.098 44.4646C221.098 44.8326 221.218 45.1393 221.458 45.3846ZM228.681 42.4646H229.529V46.2806C229.529 46.8886 229.329 47.3553 228.929 47.6806C228.529 48.0059 228.044 48.1686 227.473 48.1686C226.55 48.1686 225.918 47.8459 225.577 47.2006L226.321 46.7686C226.529 47.1793 226.918 47.3846 227.489 47.3846C227.862 47.3846 228.153 47.2859 228.361 47.0886C228.574 46.8966 228.681 46.6273 228.681 46.2806V45.7926C228.356 46.2566 227.892 46.4886 227.289 46.4886C226.724 46.4886 226.246 46.2886 225.857 45.8886C225.468 45.4833 225.273 44.9953 225.273 44.4246C225.273 43.8539 225.468 43.3686 225.857 42.9686C226.246 42.5633 226.724 42.3606 227.289 42.3606C227.892 42.3606 228.356 42.5926 228.681 43.0566V42.4646ZM226.497 45.3206C226.742 45.5606 227.046 45.6806 227.409 45.6806C227.772 45.6806 228.073 45.5606 228.313 45.3206C228.558 45.0806 228.681 44.7819 228.681 44.4246C228.681 44.0673 228.558 43.7686 228.313 43.5286C228.073 43.2886 227.772 43.1686 227.409 43.1686C227.046 43.1686 226.742 43.2886 226.497 43.5286C226.257 43.7686 226.137 44.0673 226.137 44.4246C226.137 44.7819 226.257 45.0806 226.497 45.3206ZM232.64 42.3606C233.099 42.3606 233.47 42.5073 233.752 42.8006C234.035 43.0939 234.176 43.4966 234.176 44.0086V46.4646H233.312V44.0966C233.312 43.7979 233.232 43.5686 233.072 43.4086C232.912 43.2486 232.694 43.1686 232.416 43.1686C232.112 43.1686 231.867 43.2646 231.68 43.4566C231.494 43.6433 231.4 43.9313 231.4 44.3206V46.4646H230.536V42.4646H231.4V42.9766C231.662 42.5659 232.075 42.3606 232.64 42.3606ZM236.995 46.5686C236.408 46.5686 235.909 46.3659 235.499 45.9606C235.088 45.5553 234.883 45.0566 234.883 44.4646C234.883 43.8726 235.088 43.3739 235.499 42.9686C235.909 42.5633 236.408 42.3606 236.995 42.3606C237.587 42.3606 238.085 42.5633 238.491 42.9686C238.901 43.3739 239.107 43.8726 239.107 44.4646C239.107 45.0566 238.901 45.5553 238.491 45.9606C238.085 46.3659 237.587 46.5686 236.995 46.5686ZM236.107 45.3686C236.347 45.6086 236.643 45.7286 236.995 45.7286C237.347 45.7286 237.643 45.6086 237.883 45.3686C238.123 45.1286 238.243 44.8273 238.243 44.4646C238.243 44.1019 238.123 43.8006 237.883 43.5606C237.643 43.3206 237.347 43.2006 236.995 43.2006C236.643 43.2006 236.347 43.3206 236.107 43.5606C235.867 43.8006 235.747 44.1019 235.747 44.4646C235.747 44.8273 235.867 45.1286 236.107 45.3686ZM240.586 43.5686C240.586 43.7019 240.658 43.8086 240.802 43.8886C240.951 43.9633 241.13 44.0299 241.338 44.0886C241.551 44.1419 241.764 44.2059 241.978 44.2806C242.191 44.3553 242.37 44.4833 242.514 44.6646C242.663 44.8406 242.738 45.0646 242.738 45.3366C242.738 45.7206 242.588 46.0219 242.29 46.2406C241.996 46.4593 241.626 46.5686 241.178 46.5686C240.783 46.5686 240.444 46.4859 240.162 46.3206C239.879 46.1553 239.674 45.9259 239.546 45.6326L240.29 45.2006C240.428 45.5846 240.724 45.7766 241.178 45.7766C241.631 45.7766 241.858 45.6273 241.858 45.3286C241.858 45.2006 241.783 45.0966 241.634 45.0166C241.49 44.9366 241.311 44.8699 241.098 44.8166C240.89 44.7579 240.679 44.6913 240.466 44.6166C240.252 44.5419 240.071 44.4193 239.922 44.2486C239.778 44.0726 239.706 43.8513 239.706 43.5846C239.706 43.2166 239.844 42.9206 240.122 42.6966C240.404 42.4726 240.754 42.3606 241.17 42.3606C241.5 42.3606 241.794 42.4353 242.05 42.5846C242.311 42.7286 242.511 42.9313 242.65 43.1926L241.922 43.6006C241.783 43.2966 241.532 43.1446 241.17 43.1446C241.004 43.1446 240.866 43.1819 240.754 43.2566C240.642 43.3259 240.586 43.4299 240.586 43.5686ZM244.076 44.8326C244.14 45.1366 244.286 45.3713 244.516 45.5366C244.745 45.6966 245.025 45.7766 245.356 45.7766C245.814 45.7766 246.158 45.6113 246.388 45.2806L247.1 45.6966C246.705 46.2779 246.121 46.5686 245.348 46.5686C244.697 46.5686 244.172 46.3713 243.772 45.9766C243.372 45.5766 243.172 45.0726 243.172 44.4646C243.172 43.8673 243.369 43.3686 243.764 42.9686C244.158 42.5633 244.665 42.3606 245.284 42.3606C245.87 42.3606 246.35 42.5659 246.724 42.9766C247.102 43.3873 247.292 43.8859 247.292 44.4726C247.292 44.5633 247.281 44.6833 247.26 44.8326H244.076ZM244.068 44.1286H246.42C246.361 43.8033 246.225 43.5579 246.012 43.3926C245.804 43.2273 245.558 43.1446 245.276 43.1446C244.956 43.1446 244.689 43.2326 244.476 43.4086C244.262 43.5846 244.126 43.8246 244.068 44.1286Z" fill="black"/>
<path d="M215.328 56.6252L214.376 55.0002H213.239V56.6252H212.832V52.5627H214.457C214.794 52.5627 215.08 52.6827 215.316 52.9226C215.556 53.1586 215.676 53.4449 215.676 53.7815C215.676 54.0562 215.593 54.3019 215.427 54.5185C215.264 54.7313 215.055 54.8745 214.8 54.948L215.792 56.6252H215.328ZM213.239 52.9458V54.6172H214.457C214.682 54.6172 214.873 54.536 215.032 54.3735C215.191 54.2071 215.27 54.0098 215.27 53.7815C215.27 53.5494 215.191 53.352 215.032 53.1895C214.873 53.027 214.682 52.9458 214.457 52.9458H213.239ZM218.601 56.2596C218.307 56.5498 217.947 56.6949 217.522 56.6949C217.096 56.6949 216.734 56.5498 216.436 56.2596C216.142 55.9656 215.995 55.6038 215.995 55.1744C215.995 54.7449 216.142 54.3851 216.436 54.0949C216.734 53.8008 217.096 53.6538 217.522 53.6538C217.947 53.6538 218.307 53.8008 218.601 54.0949C218.899 54.3851 219.048 54.7449 219.048 55.1744C219.048 55.6038 218.899 55.9656 218.601 56.2596ZM216.709 55.9927C216.93 56.2132 217.2 56.3235 217.522 56.3235C217.843 56.3235 218.113 56.2132 218.334 55.9927C218.555 55.7683 218.665 55.4955 218.665 55.1744C218.665 54.8532 218.555 54.5824 218.334 54.3619C218.113 54.1374 217.843 54.0252 217.522 54.0252C217.2 54.0252 216.93 54.1374 216.709 54.3619C216.488 54.5824 216.378 54.8532 216.378 55.1744C216.378 55.4955 216.488 55.7683 216.709 55.9927ZM222.121 56.2596C221.826 56.5498 221.467 56.6949 221.041 56.6949C220.615 56.6949 220.254 56.5498 219.956 56.2596C219.662 55.9656 219.515 55.6038 219.515 55.1744C219.515 54.7449 219.662 54.3851 219.956 54.0949C220.254 53.8008 220.615 53.6538 221.041 53.6538C221.467 53.6538 221.826 53.8008 222.121 54.0949C222.418 54.3851 222.567 54.7449 222.567 55.1744C222.567 55.6038 222.418 55.9656 222.121 56.2596ZM220.229 55.9927C220.449 56.2132 220.72 56.3235 221.041 56.3235C221.362 56.3235 221.633 56.2132 221.854 55.9927C222.074 55.7683 222.184 55.4955 222.184 55.1744C222.184 54.8532 222.074 54.5824 221.854 54.3619C221.633 54.1374 221.362 54.0252 221.041 54.0252C220.72 54.0252 220.449 54.1374 220.229 54.3619C220.008 54.5824 219.898 54.8532 219.898 55.1744C219.898 55.4955 220.008 55.7683 220.229 55.9927ZM224.69 54.0949H223.854V55.8534C223.854 56.012 223.885 56.1261 223.947 56.1958C224.009 56.2616 224.102 56.2964 224.225 56.3002C224.349 56.3002 224.504 56.2964 224.69 56.2886V56.6252C224.283 56.6871 223.978 56.6581 223.773 56.5382C223.571 56.4183 223.471 56.19 223.471 55.8534V54.0949H222.862V53.7235H223.471V53.027L223.854 52.911V53.7235H224.69V54.0949ZM228.735 56.6949C228.12 56.6949 227.611 56.4918 227.208 56.0855C226.806 55.6793 226.605 55.1821 226.605 54.594C226.605 54.0059 226.806 53.5087 227.208 53.1025C227.611 52.6962 228.12 52.4931 228.735 52.4931C229.11 52.4931 229.454 52.584 229.768 52.7659C230.081 52.9438 230.323 53.1857 230.493 53.4913L230.133 53.7002C230.006 53.4526 229.816 53.2553 229.565 53.1083C229.313 52.9613 229.037 52.8877 228.735 52.8877C228.228 52.8877 227.814 53.0522 227.493 53.381C227.172 53.7099 227.011 54.1142 227.011 54.594C227.011 55.0738 227.172 55.4781 227.493 55.8069C227.814 56.1358 228.228 56.3002 228.735 56.3002C229.037 56.3002 229.313 56.2267 229.565 56.0797C229.816 55.9327 230.006 55.7354 230.133 55.4877L230.493 55.6909C230.327 55.9965 230.085 56.2403 229.768 56.4221C229.454 56.604 229.11 56.6949 228.735 56.6949ZM233.57 53.7235H233.954V56.6252H233.57V56.0565C233.304 56.4821 232.913 56.6949 232.398 56.6949C231.984 56.6949 231.63 56.5479 231.336 56.2538C231.046 55.9598 230.901 55.5999 230.901 55.1744C230.901 54.7488 231.046 54.3889 231.336 54.0949C231.63 53.8008 231.984 53.6538 232.398 53.6538C232.913 53.6538 233.304 53.8666 233.57 54.2922V53.7235ZM231.615 55.9927C231.835 56.2132 232.106 56.3235 232.427 56.3235C232.748 56.3235 233.019 56.2132 233.24 55.9927C233.46 55.7683 233.57 55.4955 233.57 55.1744C233.57 54.8532 233.46 54.5824 233.24 54.3619C233.019 54.1374 232.748 54.0252 232.427 54.0252C232.106 54.0252 231.835 54.1374 231.615 54.3619C231.394 54.5824 231.284 54.8532 231.284 55.1744C231.284 55.4955 231.394 55.7683 231.615 55.9927ZM236.807 53.7235H237.19V56.6252H236.807V56.1726C236.591 56.5208 236.266 56.6949 235.832 56.6949C235.48 56.6949 235.202 56.5885 234.997 56.3757C234.795 56.159 234.695 55.8688 234.695 55.5052V53.7235H235.078V55.5052C235.078 55.7644 235.146 55.9656 235.281 56.1087C235.42 56.2519 235.616 56.3235 235.867 56.3235C236.146 56.3235 236.372 56.2364 236.546 56.0623C236.72 55.8843 236.807 55.6116 236.807 55.244V53.7235ZM238.302 54.4837C238.302 54.6153 238.361 54.7197 238.477 54.7971C238.593 54.8745 238.734 54.9345 238.9 54.977C239.067 55.0196 239.233 55.068 239.399 55.1221C239.566 55.1724 239.707 55.2595 239.823 55.3833C239.939 55.5032 239.997 55.6619 239.997 55.8592C239.997 56.1068 239.898 56.308 239.701 56.4627C239.508 56.6175 239.256 56.6949 238.947 56.6949C238.668 56.6949 238.43 56.633 238.233 56.5092C238.039 56.3854 237.904 56.2248 237.827 56.0275L238.152 55.836C238.206 55.9869 238.302 56.1068 238.442 56.1958C238.585 56.2809 238.753 56.3235 238.947 56.3235C239.136 56.3235 239.295 56.2867 239.423 56.2132C239.55 56.1358 239.614 56.0178 239.614 55.8592C239.614 55.7276 239.556 55.6232 239.44 55.5458C239.324 55.4684 239.183 55.4084 239.016 55.3659C238.85 55.3233 238.684 55.2769 238.517 55.2266C238.351 55.1724 238.21 55.0854 238.094 54.9654C237.977 54.8416 237.919 54.681 237.919 54.4837C237.919 54.2477 238.012 54.0504 238.198 53.8918C238.388 53.7331 238.626 53.6538 238.912 53.6538C239.148 53.6538 239.355 53.708 239.533 53.8163C239.711 53.9208 239.842 54.0639 239.927 54.2458L239.608 54.4315C239.496 54.1607 239.264 54.0252 238.912 54.0252C238.745 54.0252 238.602 54.0659 238.482 54.1471C238.362 54.2245 238.302 54.3367 238.302 54.4837ZM241.892 53.6538C242.321 53.6538 242.667 53.8066 242.931 54.1123C243.198 54.4141 243.331 54.772 243.331 55.186C243.331 55.2285 243.327 55.2885 243.319 55.3659H240.772C240.81 55.6599 240.934 55.894 241.143 56.0681C241.356 56.2383 241.617 56.3235 241.927 56.3235C242.147 56.3235 242.337 56.279 242.495 56.19C242.658 56.0971 242.78 55.9772 242.861 55.8302L243.198 56.0275C243.07 56.2325 242.896 56.395 242.675 56.515C242.455 56.6349 242.203 56.6949 241.921 56.6949C241.464 56.6949 241.093 56.5517 240.806 56.2654C240.52 55.9791 240.377 55.6154 240.377 55.1744C240.377 54.741 240.518 54.3793 240.801 54.0891C241.083 53.7989 241.447 53.6538 241.892 53.6538ZM241.892 54.0252C241.59 54.0252 241.336 54.1162 241.131 54.298C240.93 54.476 240.81 54.7081 240.772 54.9944H242.936C242.898 54.6888 242.78 54.4508 242.582 54.2806C242.385 54.1104 242.155 54.0252 241.892 54.0252ZM248.154 56.6252L247.776 55.627H245.85L245.472 56.6252H245.043L246.604 52.5627H247.022L248.583 56.6252H248.154ZM245.995 55.244H247.631L246.813 53.0677L245.995 55.244ZM250.405 53.6538C250.757 53.6538 251.033 53.7621 251.235 53.9788C251.44 54.1916 251.542 54.4799 251.542 54.8435V56.6252H251.159V54.8435C251.159 54.5843 251.09 54.3831 250.95 54.24C250.815 54.0968 250.621 54.0252 250.37 54.0252C250.091 54.0252 249.865 54.1142 249.691 54.2922C249.517 54.4663 249.43 54.7371 249.43 55.1047V56.6252H249.047V53.7235H249.43V54.1761C249.646 53.8279 249.971 53.6538 250.405 53.6538ZM254.778 53.7235H255.161V56.6252H254.778V56.0565C254.511 56.4821 254.121 56.6949 253.606 56.6949C253.192 56.6949 252.838 56.5479 252.544 56.2538C252.254 55.9598 252.109 55.5999 252.109 55.1744C252.109 54.7488 252.254 54.3889 252.544 54.0949C252.838 53.8008 253.192 53.6538 253.606 53.6538C254.121 53.6538 254.511 53.8666 254.778 54.2922V53.7235ZM252.823 55.9927C253.043 56.2132 253.314 56.3235 253.635 56.3235C253.956 56.3235 254.227 56.2132 254.448 55.9927C254.668 55.7683 254.778 55.4955 254.778 55.1744C254.778 54.8532 254.668 54.5824 254.448 54.3619C254.227 54.1374 253.956 54.0252 253.635 54.0252C253.314 54.0252 253.043 54.1374 252.823 54.3619C252.602 54.5824 252.492 54.8532 252.492 55.1744C252.492 55.4955 252.602 55.7683 252.823 55.9927ZM255.972 56.6252V52.3886H256.356V56.6252H255.972ZM259.258 53.7235H259.664L258.422 56.8922C258.31 57.1785 258.149 57.4029 257.94 57.5654C257.735 57.7318 257.505 57.8053 257.25 57.786V57.4261C257.598 57.4648 257.863 57.2636 258.045 56.8226L258.12 56.6427L256.82 53.7235H257.226L258.317 56.1552L259.258 53.7235ZM260.253 54.4837C260.253 54.6153 260.311 54.7197 260.427 54.7971C260.543 54.8745 260.684 54.9345 260.851 54.977C261.017 55.0196 261.183 55.068 261.35 55.1221C261.516 55.1724 261.657 55.2595 261.773 55.3833C261.889 55.5032 261.948 55.6619 261.948 55.8592C261.948 56.1068 261.849 56.308 261.652 56.4627C261.458 56.6175 261.207 56.6949 260.897 56.6949C260.619 56.6949 260.381 56.633 260.183 56.5092C259.99 56.3854 259.854 56.2248 259.777 56.0275L260.102 55.836C260.156 55.9869 260.253 56.1068 260.392 56.1958C260.535 56.2809 260.704 56.3235 260.897 56.3235C261.087 56.3235 261.245 56.2867 261.373 56.2132C261.501 56.1358 261.564 56.0178 261.564 55.8592C261.564 55.7276 261.506 55.6232 261.39 55.5458C261.274 55.4684 261.133 55.4084 260.967 55.3659C260.8 55.3233 260.634 55.2769 260.468 55.2266C260.301 55.1724 260.16 55.0854 260.044 54.9654C259.928 54.8416 259.87 54.681 259.87 54.4837C259.87 54.2477 259.963 54.0504 260.148 53.8918C260.338 53.7331 260.576 53.6538 260.862 53.6538C261.098 53.6538 261.305 53.708 261.483 53.8163C261.661 53.9208 261.793 54.0639 261.878 54.2458L261.559 54.4315C261.446 54.1607 261.214 54.0252 260.862 54.0252C260.696 54.0252 260.553 54.0659 260.433 54.1471C260.313 54.2245 260.253 54.3367 260.253 54.4837ZM262.947 53.027C262.893 53.0812 262.827 53.1083 262.75 53.1083C262.672 53.1083 262.607 53.0812 262.552 53.027C262.498 52.9729 262.471 52.9071 262.471 52.8297C262.471 52.7523 262.498 52.6866 262.552 52.6324C262.607 52.5782 262.672 52.5511 262.75 52.5511C262.827 52.5511 262.893 52.5782 262.947 52.6324C263.001 52.6866 263.028 52.7523 263.028 52.8297C263.028 52.9071 263.001 52.9729 262.947 53.027ZM262.558 56.6252V53.7235H262.941V56.6252H262.558ZM264.056 54.4837C264.056 54.6153 264.114 54.7197 264.23 54.7971C264.346 54.8745 264.487 54.9345 264.654 54.977C264.82 55.0196 264.986 55.068 265.153 55.1221C265.319 55.1724 265.46 55.2595 265.576 55.3833C265.692 55.5032 265.75 55.6619 265.75 55.8592C265.75 56.1068 265.652 56.308 265.454 56.4627C265.261 56.6175 265.01 56.6949 264.7 56.6949C264.421 56.6949 264.183 56.633 263.986 56.5092C263.793 56.3854 263.657 56.2248 263.58 56.0275L263.905 55.836C263.959 55.9869 264.056 56.1068 264.195 56.1958C264.338 56.2809 264.507 56.3235 264.7 56.3235C264.89 56.3235 265.048 56.2867 265.176 56.2132C265.304 56.1358 265.367 56.0178 265.367 55.8592C265.367 55.7276 265.309 55.6232 265.193 55.5458C265.077 55.4684 264.936 55.4084 264.77 55.3659C264.603 55.3233 264.437 55.2769 264.271 55.2266C264.104 55.1724 263.963 55.0854 263.847 54.9654C263.731 54.8416 263.673 54.681 263.673 54.4837C263.673 54.2477 263.766 54.0504 263.951 53.8918C264.141 53.7331 264.379 53.6538 264.665 53.6538C264.901 53.6538 265.108 53.708 265.286 53.8163C265.464 53.9208 265.596 54.0639 265.681 54.2458L265.362 54.4315C265.249 54.1607 265.017 54.0252 264.665 54.0252C264.499 54.0252 264.356 54.0659 264.236 54.1471C264.116 54.2245 264.056 54.3367 264.056 54.4837Z" fill="black"/>
</g>
<g opacity="0.5">
<circle cx="195.404" cy="80.2236" r="10" fill="#DEE8FA"/>
<path d="M192.991 78.8062L191.587 77.4031M191.587 77.4031L192.991 76M191.587 77.4031H196.609C197.705 77.4031 198.594 78.2915 198.594 79.3874V80M197.715 81.1938L199.118 82.5969L197.715 84M192.112 80V80.6126C192.112 81.7085 193 82.5969 194.096 82.5969H199.118" stroke="#0049CC" stroke-width="0.6" stroke-miterlimit="10"/>
<g clip-path="url(#clip3_144_725)">
<path d="M216.576 76.6433L216.184 75.5153H213.8L213.408 76.6433H212.408L214.44 71.0433H215.544L217.568 76.6433H216.576ZM214.104 74.6513H215.88L214.992 72.1233L214.104 74.6513ZM220.763 72.6433H221.627V76.6433H220.763V76.1313C220.502 76.542 220.089 76.7473 219.523 76.7473C219.065 76.7473 218.694 76.6006 218.411 76.3073C218.129 76.014 217.987 75.6113 217.987 75.0993V72.6433H218.851V75.0113C218.851 75.31 218.931 75.5393 219.091 75.6993C219.251 75.8593 219.47 75.9393 219.747 75.9393C220.051 75.9393 220.297 75.846 220.483 75.6593C220.67 75.4673 220.763 75.1766 220.763 74.7873V72.6433ZM224.87 73.4753H223.878V75.3953C223.878 75.5606 223.915 75.6806 223.99 75.7553C224.064 75.8246 224.174 75.8646 224.318 75.8753C224.467 75.8806 224.651 75.878 224.87 75.8673V76.6433C224.208 76.7233 223.734 76.6673 223.446 76.4753C223.158 76.278 223.014 75.918 223.014 75.3953V73.4753H222.278V72.6433H223.014V71.7793L223.878 71.5233V72.6433H224.87V73.4753ZM227.377 76.7473C226.791 76.7473 226.292 76.5446 225.881 76.1393C225.471 75.734 225.265 75.2353 225.265 74.6433C225.265 74.0513 225.471 73.5526 225.881 73.1473C226.292 72.742 226.791 72.5393 227.377 72.5393C227.969 72.5393 228.468 72.742 228.873 73.1473C229.284 73.5526 229.489 74.0513 229.489 74.6433C229.489 75.2353 229.284 75.734 228.873 76.1393C228.468 76.5446 227.969 76.7473 227.377 76.7473ZM226.489 75.5473C226.729 75.7873 227.025 75.9073 227.377 75.9073C227.729 75.9073 228.025 75.7873 228.265 75.5473C228.505 75.3073 228.625 75.006 228.625 74.6433C228.625 74.2806 228.505 73.9793 228.265 73.7393C228.025 73.4993 227.729 73.3793 227.377 73.3793C227.025 73.3793 226.729 73.4993 226.489 73.7393C226.249 73.9793 226.129 74.2806 226.129 74.6433C226.129 75.006 226.249 75.3073 226.489 75.5473ZM230.327 74.6273V73.7953H233.287V74.6273H230.327ZM237.053 76.7473C236.21 76.7473 235.511 76.47 234.957 75.9153C234.402 75.3553 234.125 74.6646 234.125 73.8433C234.125 73.022 234.402 72.334 234.957 71.7793C235.511 71.2193 236.21 70.9393 237.053 70.9393C237.559 70.9393 238.026 71.0593 238.453 71.2993C238.885 71.5393 239.221 71.8646 239.461 72.2753L238.661 72.7393C238.511 72.462 238.293 72.2433 238.005 72.0833C237.722 71.918 237.405 71.8353 237.053 71.8353C236.455 71.8353 235.97 72.0246 235.597 72.4033C235.229 72.782 235.045 73.262 235.045 73.8433C235.045 74.4246 235.229 74.9046 235.597 75.2833C235.97 75.662 236.455 75.8513 237.053 75.8513C237.405 75.8513 237.725 75.7713 238.013 75.6113C238.301 75.446 238.517 75.2246 238.661 74.9473L239.461 75.4033C239.226 75.814 238.893 76.142 238.461 76.3873C238.034 76.6273 237.565 76.7473 237.053 76.7473ZM242.049 76.7473C241.463 76.7473 240.964 76.5446 240.553 76.1393C240.143 75.734 239.937 75.2353 239.937 74.6433C239.937 74.0513 240.143 73.5526 240.553 73.1473C240.964 72.742 241.463 72.5393 242.049 72.5393C242.641 72.5393 243.14 72.742 243.545 73.1473C243.956 73.5526 244.161 74.0513 244.161 74.6433C244.161 75.2353 243.956 75.734 243.545 76.1393C243.14 76.5446 242.641 76.7473 242.049 76.7473ZM241.161 75.5473C241.401 75.7873 241.697 75.9073 242.049 75.9073C242.401 75.9073 242.697 75.7873 242.937 75.5473C243.177 75.3073 243.297 75.006 243.297 74.6433C243.297 74.2806 243.177 73.9793 242.937 73.7393C242.697 73.4993 242.401 73.3793 242.049 73.3793C241.697 73.3793 241.401 73.4993 241.161 73.7393C240.921 73.9793 240.801 74.2806 240.801 74.6433C240.801 75.006 240.921 75.3073 241.161 75.5473ZM245.806 73.3153C246.025 72.8193 246.436 72.5713 247.038 72.5713V73.5073C246.708 73.486 246.42 73.566 246.174 73.7473C245.929 73.9233 245.806 74.2166 245.806 74.6273V76.6433H244.942V72.6433H245.806V73.3153ZM248.541 73.3153C248.76 72.8193 249.17 72.5713 249.773 72.5713V73.5073C249.442 73.486 249.154 73.566 248.909 73.7473C248.664 73.9233 248.541 74.2166 248.541 74.6273V76.6433H247.677V72.6433H248.541V73.3153ZM250.904 75.0113C250.968 75.3153 251.114 75.55 251.344 75.7153C251.573 75.8753 251.853 75.9553 252.184 75.9553C252.642 75.9553 252.986 75.79 253.216 75.4593L253.928 75.8753C253.533 76.4566 252.949 76.7473 252.176 76.7473C251.525 76.7473 251 76.55 250.6 76.1553C250.2 75.7553 250 75.2513 250 74.6433C250 74.046 250.197 73.5473 250.592 73.1473C250.986 72.742 251.493 72.5393 252.112 72.5393C252.698 72.5393 253.178 72.7446 253.552 73.1553C253.93 73.566 254.12 74.0646 254.12 74.6513C254.12 74.742 254.109 74.862 254.088 75.0113H250.904ZM250.896 74.3073H253.248C253.189 73.982 253.053 73.7366 252.84 73.5713C252.632 73.406 252.386 73.3233 252.104 73.3233C251.784 73.3233 251.517 73.4113 251.304 73.5873C251.09 73.7633 250.954 74.0033 250.896 74.3073ZM256.745 76.7473C256.142 76.7473 255.638 76.5446 255.233 76.1393C254.833 75.734 254.633 75.2353 254.633 74.6433C254.633 74.046 254.833 73.5473 255.233 73.1473C255.638 72.742 256.142 72.5393 256.745 72.5393C257.134 72.5393 257.489 72.6326 257.809 72.8193C258.129 73.006 258.369 73.2566 258.529 73.5713L257.785 74.0033C257.694 73.8113 257.555 73.662 257.369 73.5553C257.187 73.4433 256.977 73.3873 256.737 73.3873C256.385 73.3873 256.089 73.5073 255.849 73.7473C255.614 73.9873 255.497 74.286 255.497 74.6433C255.497 75.0006 255.614 75.2993 255.849 75.5393C256.089 75.7793 256.385 75.8993 256.737 75.8993C256.971 75.8993 257.182 75.8433 257.369 75.7313C257.561 75.6193 257.705 75.47 257.801 75.2833L258.545 75.7073C258.374 76.0273 258.129 76.2806 257.809 76.4673C257.489 76.654 257.134 76.7473 256.745 76.7473ZM261.401 73.4753H260.409V75.3953C260.409 75.5606 260.446 75.6806 260.521 75.7553C260.596 75.8246 260.705 75.8646 260.849 75.8753C260.998 75.8806 261.182 75.878 261.401 75.8673V76.6433C260.74 76.7233 260.265 76.6673 259.977 76.4753C259.689 76.278 259.545 75.918 259.545 75.3953V73.4753H258.809V72.6433H259.545V71.7793L260.409 71.5233V72.6433H261.401V73.4753Z" fill="black"/>
<path d="M214.73 86.8736C214.115 86.8736 213.606 86.6705 213.204 86.2642C212.801 85.858 212.6 85.3608 212.6 84.7727C212.6 84.1846 212.801 83.6874 213.204 83.2812C213.606 82.8749 214.115 82.6718 214.73 82.6718C215.106 82.6718 215.45 82.7627 215.763 82.9446C216.077 83.1226 216.318 83.3644 216.489 83.67L216.129 83.879C216.001 83.6313 215.812 83.434 215.56 83.287C215.309 83.14 215.032 83.0665 214.73 83.0665C214.223 83.0665 213.809 83.2309 213.488 83.5598C213.167 83.8886 213.007 84.2929 213.007 84.7727C213.007 85.2525 213.167 85.6568 213.488 85.9857C213.809 86.3145 214.223 86.479 214.73 86.479C215.032 86.479 215.309 86.4054 215.56 86.2584C215.812 86.1114 216.001 85.9141 216.129 85.6665L216.489 85.8696C216.322 86.1752 216.081 86.419 215.763 86.6008C215.45 86.7827 215.106 86.8736 214.73 86.8736ZM219.502 86.4383C219.208 86.7285 218.848 86.8736 218.423 86.8736C217.997 86.8736 217.635 86.7285 217.337 86.4383C217.043 86.1443 216.896 85.7825 216.896 85.3531C216.896 84.9236 217.043 84.5638 217.337 84.2736C217.635 83.9796 217.997 83.8325 218.423 83.8325C218.848 83.8325 219.208 83.9796 219.502 84.2736C219.8 84.5638 219.949 84.9236 219.949 85.3531C219.949 85.7825 219.8 86.1443 219.502 86.4383ZM217.61 86.1714C217.831 86.3919 218.102 86.5022 218.423 86.5022C218.744 86.5022 219.015 86.3919 219.235 86.1714C219.456 85.947 219.566 85.6742 219.566 85.3531C219.566 85.0319 219.456 84.7611 219.235 84.5406C219.015 84.3162 218.744 84.204 218.423 84.204C218.102 84.204 217.831 84.3162 217.61 84.5406C217.39 84.7611 217.279 85.0319 217.279 85.3531C217.279 85.6742 217.39 85.947 217.61 86.1714ZM220.973 84.3839C221.151 84.0318 221.457 83.8557 221.89 83.8557V84.2272C221.627 84.2272 221.408 84.3046 221.234 84.4593C221.06 84.6141 220.973 84.8578 220.973 85.1906V86.804H220.59V83.9022H220.973V84.3839ZM222.798 84.3839C222.976 84.0318 223.282 83.8557 223.715 83.8557V84.2272C223.452 84.2272 223.233 84.3046 223.059 84.4593C222.885 84.6141 222.798 84.8578 222.798 85.1906V86.804H222.415V83.9022H222.798V84.3839ZM225.405 83.8325C225.834 83.8325 226.181 83.9854 226.444 84.291C226.711 84.5928 226.844 84.9507 226.844 85.3647C226.844 85.4072 226.84 85.4672 226.832 85.5446H224.285C224.323 85.8386 224.447 86.0727 224.656 86.2468C224.869 86.4171 225.13 86.5022 225.44 86.5022C225.66 86.5022 225.85 86.4577 226.008 86.3687C226.171 86.2758 226.293 86.1559 226.374 86.0089L226.711 86.2062C226.583 86.4112 226.409 86.5737 226.188 86.6937C225.968 86.8136 225.716 86.8736 225.434 86.8736C224.977 86.8736 224.606 86.7304 224.32 86.4441C224.033 86.1578 223.89 85.7941 223.89 85.3531C223.89 84.9197 224.031 84.558 224.314 84.2678C224.596 83.9776 224.96 83.8325 225.405 83.8325ZM225.405 84.204C225.103 84.204 224.85 84.2949 224.645 84.4767C224.443 84.6547 224.323 84.8868 224.285 85.1732H226.449C226.411 84.8675 226.293 84.6296 226.095 84.4593C225.898 84.2891 225.668 84.204 225.405 84.204ZM228.806 86.8736C228.368 86.8736 228.005 86.7285 227.715 86.4383C227.424 86.1443 227.279 85.7825 227.279 85.3531C227.279 84.9236 227.424 84.5638 227.715 84.2736C228.005 83.9796 228.368 83.8325 228.806 83.8325C229.092 83.8325 229.349 83.9022 229.577 84.0415C229.806 84.1769 229.972 84.3607 230.077 84.5928L229.763 84.7727C229.686 84.5986 229.56 84.4612 229.386 84.3607C229.216 84.2562 229.022 84.204 228.806 84.204C228.484 84.204 228.214 84.3162 227.993 84.5406C227.773 84.7611 227.662 85.0319 227.662 85.3531C227.662 85.6742 227.773 85.947 227.993 86.1714C228.214 86.3919 228.484 86.5022 228.806 86.5022C229.022 86.5022 229.216 86.4519 229.386 86.3513C229.556 86.2468 229.69 86.1075 229.786 85.9334L230.106 86.1191C229.986 86.3513 229.81 86.5351 229.577 86.6705C229.345 86.8059 229.088 86.8736 228.806 86.8736ZM232.193 84.2736H231.358V86.0321C231.358 86.1907 231.389 86.3048 231.451 86.3745C231.513 86.4403 231.605 86.4751 231.729 86.479C231.853 86.479 232.008 86.4751 232.193 86.4673V86.804C231.787 86.8659 231.482 86.8368 231.277 86.7169C231.075 86.597 230.975 86.3687 230.975 86.0321V84.2736H230.365V83.9022H230.975V83.2057L231.358 83.0897V83.9022H232.193V84.2736ZM233.221 83.2057C233.167 83.2599 233.101 83.287 233.023 83.287C232.946 83.287 232.88 83.2599 232.826 83.2057C232.772 83.1516 232.745 83.0858 232.745 83.0084C232.745 82.931 232.772 82.8653 232.826 82.8111C232.88 82.7569 232.946 82.7298 233.023 82.7298C233.101 82.7298 233.167 82.7569 233.221 82.8111C233.275 82.8653 233.302 82.931 233.302 83.0084C233.302 83.0858 233.275 83.1516 233.221 83.2057ZM232.832 86.804V83.9022H233.215V86.804H232.832ZM236.459 86.4383C236.165 86.7285 235.806 86.8736 235.38 86.8736C234.954 86.8736 234.593 86.7285 234.295 86.4383C234.001 86.1443 233.854 85.7825 233.854 85.3531C233.854 84.9236 234.001 84.5638 234.295 84.2736C234.593 83.9796 234.954 83.8325 235.38 83.8325C235.806 83.8325 236.165 83.9796 236.459 84.2736C236.757 84.5638 236.906 84.9236 236.906 85.3531C236.906 85.7825 236.757 86.1443 236.459 86.4383ZM234.567 86.1714C234.788 86.3919 235.059 86.5022 235.38 86.5022C235.701 86.5022 235.972 86.3919 236.192 86.1714C236.413 85.947 236.523 85.6742 236.523 85.3531C236.523 85.0319 236.413 84.7611 236.192 84.5406C235.972 84.3162 235.701 84.204 235.38 84.204C235.059 84.204 234.788 84.3162 234.567 84.5406C234.347 84.7611 234.237 85.0319 234.237 85.3531C234.237 85.6742 234.347 85.947 234.567 86.1714ZM238.905 83.8325C239.257 83.8325 239.534 83.9409 239.735 84.1575C239.94 84.3703 240.043 84.6586 240.043 85.0223V86.804H239.66V85.0223C239.66 84.763 239.59 84.5618 239.451 84.4187C239.315 84.2755 239.122 84.204 238.87 84.204C238.592 84.204 238.366 84.2929 238.191 84.4709C238.017 84.645 237.93 84.9159 237.93 85.2834V86.804H237.547V83.9022H237.93V84.3548C238.147 84.0066 238.472 83.8325 238.905 83.8325ZM241.085 84.6624C241.085 84.794 241.143 84.8984 241.259 84.9758C241.375 85.0532 241.517 85.1132 241.683 85.1557C241.849 85.1983 242.016 85.2467 242.182 85.3008C242.348 85.3511 242.49 85.4382 242.606 85.562C242.722 85.6819 242.78 85.8406 242.78 86.0379C242.78 86.2855 242.681 86.4867 242.484 86.6415C242.29 86.7962 242.039 86.8736 241.729 86.8736C241.451 86.8736 241.213 86.8117 241.016 86.6879C240.822 86.5641 240.687 86.4035 240.609 86.2062L240.934 86.0147C240.989 86.1656 241.085 86.2855 241.225 86.3745C241.368 86.4596 241.536 86.5022 241.729 86.5022C241.919 86.5022 242.078 86.4654 242.205 86.3919C242.333 86.3145 242.397 86.1965 242.397 86.0379C242.397 85.9063 242.339 85.8019 242.223 85.7245C242.107 85.6471 241.965 85.5871 241.799 85.5446C241.633 85.502 241.466 85.4556 241.3 85.4053C241.134 85.3511 240.992 85.2641 240.876 85.1441C240.76 85.0203 240.702 84.8598 240.702 84.6624C240.702 84.4264 240.795 84.2291 240.981 84.0705C241.17 83.9118 241.408 83.8325 241.695 83.8325C241.931 83.8325 242.138 83.8867 242.316 83.995C242.494 84.0995 242.625 84.2426 242.71 84.4245L242.391 84.6102C242.279 84.3394 242.047 84.204 241.695 84.204C241.528 84.204 241.385 84.2446 241.265 84.3258C241.145 84.4032 241.085 84.5154 241.085 84.6624ZM247.632 86.804L247.255 85.8057H245.328L244.951 86.804H244.522L246.083 82.7415H246.501L248.062 86.804H247.632ZM245.473 85.4227H247.11L246.292 83.2464L245.473 85.4227ZM250.081 83.8325C250.495 83.8325 250.847 83.9796 251.137 84.2736C251.431 84.5676 251.578 84.9275 251.578 85.3531C251.578 85.7787 251.431 86.1385 251.137 86.4325C250.847 86.7266 250.495 86.8736 250.081 86.8736C249.566 86.8736 249.175 86.6608 248.908 86.2352V87.9647H248.525V83.9022H248.908V84.4709C249.175 84.0453 249.566 83.8325 250.081 83.8325ZM249.239 86.1714C249.46 86.3919 249.731 86.5022 250.052 86.5022C250.373 86.5022 250.644 86.3919 250.864 86.1714C251.085 85.947 251.195 85.6742 251.195 85.3531C251.195 85.0319 251.085 84.7611 250.864 84.5406C250.644 84.3162 250.373 84.204 250.052 84.204C249.731 84.204 249.46 84.3162 249.239 84.5406C249.019 84.7611 248.908 85.0319 248.908 85.3531C248.908 85.6742 249.019 85.947 249.239 86.1714ZM253.77 83.8325C254.184 83.8325 254.536 83.9796 254.827 84.2736C255.121 84.5676 255.268 84.9275 255.268 85.3531C255.268 85.7787 255.121 86.1385 254.827 86.4325C254.536 86.7266 254.184 86.8736 253.77 86.8736C253.256 86.8736 252.865 86.6608 252.598 86.2352V87.9647H252.215V83.9022H252.598V84.4709C252.865 84.0453 253.256 83.8325 253.77 83.8325ZM252.929 86.1714C253.149 86.3919 253.42 86.5022 253.741 86.5022C254.062 86.5022 254.333 86.3919 254.554 86.1714C254.774 85.947 254.885 85.6742 254.885 85.3531C254.885 85.0319 254.774 84.7611 254.554 84.5406C254.333 84.3162 254.062 84.204 253.741 84.204C253.42 84.204 253.149 84.3162 252.929 84.5406C252.708 84.7611 252.598 85.0319 252.598 85.3531C252.598 85.6742 252.708 85.947 252.929 86.1714ZM255.904 86.804V82.5673H256.288V86.804H255.904ZM257.489 83.2057C257.435 83.2599 257.369 83.287 257.292 83.287C257.214 83.287 257.149 83.2599 257.095 83.2057C257.04 83.1516 257.013 83.0858 257.013 83.0084C257.013 82.931 257.04 82.8653 257.095 82.8111C257.149 82.7569 257.214 82.7298 257.292 82.7298C257.369 82.7298 257.435 82.7569 257.489 82.8111C257.543 82.8653 257.57 82.931 257.57 83.0084C257.57 83.0858 257.543 83.1516 257.489 83.2057ZM257.1 86.804V83.9022H257.483V86.804H257.1ZM259.637 83.8325C260.066 83.8325 260.413 83.9854 260.676 84.291C260.943 84.5928 261.076 84.9507 261.076 85.3647C261.076 85.4072 261.072 85.4672 261.064 85.5446H258.517C258.555 85.8386 258.679 86.0727 258.888 86.2468C259.101 86.4171 259.362 86.5022 259.672 86.5022C259.892 86.5022 260.082 86.4577 260.24 86.3687C260.403 86.2758 260.525 86.1559 260.606 86.0089L260.943 86.2062C260.815 86.4112 260.641 86.5737 260.42 86.6937C260.2 86.8136 259.948 86.8736 259.666 86.8736C259.209 86.8736 258.838 86.7304 258.552 86.4441C258.265 86.1578 258.122 85.7941 258.122 85.3531C258.122 84.9197 258.263 84.558 258.546 84.2678C258.828 83.9776 259.192 83.8325 259.637 83.8325ZM259.637 84.204C259.335 84.204 259.082 84.2949 258.877 84.4767C258.675 84.6547 258.555 84.8868 258.517 85.1732H260.681C260.643 84.8675 260.525 84.6296 260.327 84.4593C260.13 84.2891 259.9 84.204 259.637 84.204ZM264.181 82.7415H264.564V86.804H264.181V86.2352C263.914 86.6608 263.523 86.8736 263.009 86.8736C262.595 86.8736 262.241 86.7266 261.947 86.4325C261.656 86.1385 261.511 85.7787 261.511 85.3531C261.511 84.9275 261.656 84.5676 261.947 84.2736C262.241 83.9796 262.595 83.8325 263.009 83.8325C263.523 83.8325 263.914 84.0453 264.181 84.4709V82.7415ZM262.225 86.1714C262.446 86.3919 262.716 86.5022 263.038 86.5022C263.359 86.5022 263.63 86.3919 263.85 86.1714C264.071 85.947 264.181 85.6742 264.181 85.3531C264.181 85.0319 264.071 84.7611 263.85 84.5406C263.63 84.3162 263.359 84.204 263.038 84.204C262.716 84.204 262.446 84.3162 262.225 84.5406C262.005 84.7611 261.894 85.0319 261.894 85.3531C261.894 85.6742 262.005 85.947 262.225 86.1714Z" fill="black"/>
</g>
</g>
<g opacity="0.1">
<circle cx="195.404" cy="110.402" r="10" fill="#E1E9D3"/>
<g clip-path="url(#clip4_144_725)">
<path d="M216.12 106.822L214.936 104.782H213.848V106.822H212.928V101.222H215.168C215.669 101.222 216.093 101.398 216.44 101.75C216.792 102.096 216.968 102.52 216.968 103.022C216.968 103.379 216.864 103.707 216.656 104.006C216.453 104.299 216.187 104.512 215.856 104.646L217.128 106.822H216.12ZM213.848 102.086V103.958H215.168C215.413 103.958 215.621 103.867 215.792 103.686C215.963 103.504 216.048 103.283 216.048 103.022C216.048 102.76 215.963 102.539 215.792 102.358C215.621 102.176 215.413 102.086 215.168 102.086H213.848ZM218.247 105.19C218.311 105.494 218.458 105.728 218.687 105.894C218.917 106.054 219.197 106.134 219.527 106.134C219.986 106.134 220.33 105.968 220.559 105.638L221.271 106.054C220.877 106.635 220.293 106.926 219.519 106.926C218.869 106.926 218.343 106.728 217.943 106.334C217.543 105.934 217.343 105.43 217.343 104.822C217.343 104.224 217.541 103.726 217.935 103.326C218.33 102.92 218.837 102.718 219.455 102.718C220.042 102.718 220.522 102.923 220.895 103.334C221.274 103.744 221.463 104.243 221.463 104.83C221.463 104.92 221.453 105.04 221.431 105.19H218.247ZM218.239 104.486H220.591C220.533 104.16 220.397 103.915 220.183 103.75C219.975 103.584 219.73 103.502 219.447 103.502C219.127 103.502 218.861 103.59 218.647 103.766C218.434 103.942 218.298 104.182 218.239 104.486ZM222.843 103.926C222.843 104.059 222.915 104.166 223.059 104.246C223.209 104.32 223.387 104.387 223.595 104.446C223.809 104.499 224.022 104.563 224.235 104.638C224.449 104.712 224.627 104.84 224.771 105.022C224.921 105.198 224.995 105.422 224.995 105.694C224.995 106.078 224.846 106.379 224.547 106.598C224.254 106.816 223.883 106.926 223.435 106.926C223.041 106.926 222.702 106.843 222.419 106.678C222.137 106.512 221.931 106.283 221.803 105.99L222.547 105.558C222.686 105.942 222.982 106.134 223.435 106.134C223.889 106.134 224.115 105.984 224.115 105.686C224.115 105.558 224.041 105.454 223.891 105.374C223.747 105.294 223.569 105.227 223.355 105.174C223.147 105.115 222.937 105.048 222.723 104.974C222.51 104.899 222.329 104.776 222.179 104.606C222.035 104.43 221.963 104.208 221.963 103.942C221.963 103.574 222.102 103.278 222.379 103.054C222.662 102.83 223.011 102.718 223.427 102.718C223.758 102.718 224.051 102.792 224.307 102.942C224.569 103.086 224.769 103.288 224.907 103.55L224.179 103.958C224.041 103.654 223.79 103.502 223.427 103.502C223.262 103.502 223.123 103.539 223.011 103.614C222.899 103.683 222.843 103.787 222.843 103.926ZM228.404 102.822H229.268V106.822H228.404V106.31C228.143 106.72 227.729 106.926 227.164 106.926C226.705 106.926 226.335 106.779 226.052 106.486C225.769 106.192 225.628 105.79 225.628 105.278V102.822H226.492V105.19C226.492 105.488 226.572 105.718 226.732 105.878C226.892 106.038 227.111 106.118 227.388 106.118C227.692 106.118 227.937 106.024 228.124 105.838C228.311 105.646 228.404 105.355 228.404 104.966V102.822ZM232.542 102.718C233.092 102.718 233.561 102.92 233.95 103.326C234.34 103.731 234.534 104.23 234.534 104.822C234.534 105.408 234.34 105.907 233.95 106.318C233.561 106.723 233.092 106.926 232.542 106.926C231.934 106.926 231.468 106.699 231.142 106.246V106.822H230.278V101.222H231.142V103.39C231.468 102.942 231.934 102.718 232.542 102.718ZM231.502 105.742C231.742 105.982 232.044 106.102 232.406 106.102C232.769 106.102 233.07 105.982 233.31 105.742C233.55 105.496 233.67 105.19 233.67 104.822C233.67 104.454 233.55 104.15 233.31 103.91C233.07 103.664 232.769 103.542 232.406 103.542C232.044 103.542 231.742 103.664 231.502 103.91C231.262 104.15 231.142 104.454 231.142 104.822C231.142 105.19 231.262 105.496 231.502 105.742ZM239.685 102.718C240.139 102.718 240.504 102.864 240.781 103.158C241.059 103.451 241.197 103.846 241.197 104.342V106.822H240.333V104.398C240.333 104.12 240.264 103.907 240.125 103.758C239.987 103.603 239.797 103.526 239.557 103.526C239.291 103.526 239.077 103.614 238.917 103.79C238.763 103.966 238.685 104.23 238.685 104.582V106.822H237.821V104.398C237.821 104.12 237.755 103.907 237.621 103.758C237.493 103.603 237.309 103.526 237.069 103.526C236.808 103.526 236.595 103.616 236.429 103.798C236.264 103.974 236.181 104.235 236.181 104.582V106.822H235.317V102.822H236.181V103.302C236.437 102.912 236.819 102.718 237.325 102.718C237.837 102.718 238.216 102.928 238.461 103.35C238.728 102.928 239.136 102.718 239.685 102.718ZM242.938 102.062C242.831 102.168 242.703 102.222 242.554 102.222C242.405 102.222 242.274 102.168 242.162 102.062C242.055 101.95 242.002 101.819 242.002 101.67C242.002 101.52 242.055 101.392 242.162 101.286C242.269 101.174 242.399 101.118 242.554 101.118C242.709 101.118 242.839 101.174 242.946 101.286C243.053 101.392 243.106 101.52 243.106 101.67C243.106 101.819 243.05 101.95 242.938 102.062ZM242.122 106.822V102.822H242.986V106.822H242.122ZM246.221 103.654H245.229V105.574C245.229 105.739 245.267 105.859 245.341 105.934C245.416 106.003 245.525 106.043 245.669 106.054C245.819 106.059 246.003 106.056 246.221 106.046V106.822C245.56 106.902 245.085 106.846 244.797 106.654C244.509 106.456 244.365 106.096 244.365 105.574V103.654H243.629V102.822H244.365V101.958L245.229 101.702V102.822H246.221V103.654Z" fill="black"/>
<path d="M215.328 116.982L214.376 115.357H213.239V116.982H212.832V112.92H214.457C214.794 112.92 215.08 113.04 215.316 113.28C215.556 113.516 215.676 113.802 215.676 114.139C215.676 114.413 215.593 114.659 215.427 114.876C215.264 115.089 215.055 115.232 214.8 115.305L215.792 116.982H215.328ZM213.239 113.303V114.974H214.457C214.682 114.974 214.873 114.893 215.032 114.731C215.191 114.564 215.27 114.367 215.27 114.139C215.27 113.907 215.191 113.709 215.032 113.547C214.873 113.384 214.682 113.303 214.457 113.303H213.239ZM217.51 114.011C217.939 114.011 218.286 114.164 218.549 114.469C218.816 114.771 218.949 115.129 218.949 115.543C218.949 115.586 218.945 115.646 218.938 115.723H216.39C216.429 116.017 216.552 116.251 216.761 116.425C216.974 116.596 217.235 116.681 217.545 116.681C217.765 116.681 217.955 116.636 218.113 116.547C218.276 116.454 218.398 116.334 218.479 116.187L218.816 116.385C218.688 116.59 218.514 116.752 218.293 116.872C218.073 116.992 217.821 117.052 217.539 117.052C217.082 117.052 216.711 116.909 216.425 116.623C216.138 116.336 215.995 115.973 215.995 115.532C215.995 115.098 216.136 114.736 216.419 114.446C216.701 114.156 217.065 114.011 217.51 114.011ZM217.51 114.382C217.208 114.382 216.955 114.473 216.75 114.655C216.548 114.833 216.429 115.065 216.39 115.352H218.555C218.516 115.046 218.398 114.808 218.201 114.638C218.003 114.468 217.773 114.382 217.51 114.382ZM221.011 114.452H220.176V116.211C220.176 116.369 220.207 116.483 220.269 116.553C220.33 116.619 220.423 116.654 220.547 116.657C220.671 116.657 220.826 116.654 221.011 116.646V116.982C220.605 117.044 220.299 117.015 220.094 116.895C219.893 116.775 219.793 116.547 219.793 116.211V114.452H219.183V114.081H219.793V113.384L220.176 113.268V114.081H221.011V114.452ZM222.033 114.562C222.211 114.21 222.516 114.034 222.95 114.034V114.406C222.687 114.406 222.468 114.483 222.294 114.638C222.12 114.793 222.033 115.036 222.033 115.369V116.982H221.65V114.081H222.033V114.562ZM225.621 114.081H226.027L224.785 117.249C224.673 117.536 224.512 117.76 224.303 117.923C224.098 118.089 223.868 118.162 223.613 118.143V117.783C223.961 117.822 224.226 117.621 224.408 117.18L224.483 117L223.183 114.081H223.589L224.681 116.512L225.621 114.081ZM228.33 113.384C228.275 113.438 228.21 113.465 228.132 113.465C228.055 113.465 227.989 113.438 227.935 113.384C227.881 113.33 227.854 113.264 227.854 113.187C227.854 113.11 227.881 113.044 227.935 112.99C227.989 112.935 228.055 112.908 228.132 112.908C228.21 112.908 228.275 112.935 228.33 112.99C228.384 113.044 228.411 113.11 228.411 113.187C228.411 113.264 228.384 113.33 228.33 113.384ZM227.941 116.982V114.081H228.324V116.982H227.941ZM230.495 114.011C230.847 114.011 231.123 114.119 231.325 114.336C231.53 114.549 231.632 114.837 231.632 115.201V116.982H231.249V115.201C231.249 114.941 231.179 114.74 231.04 114.597C230.905 114.454 230.711 114.382 230.46 114.382C230.181 114.382 229.955 114.471 229.781 114.649C229.607 114.823 229.52 115.094 229.52 115.462V116.982H229.137V114.081H229.52V114.533C229.736 114.185 230.061 114.011 230.495 114.011ZM232.762 113.384C232.707 113.438 232.642 113.465 232.564 113.465C232.487 113.465 232.421 113.438 232.367 113.384C232.313 113.33 232.286 113.264 232.286 113.187C232.286 113.11 232.313 113.044 232.367 112.99C232.421 112.935 232.487 112.908 232.564 112.908C232.642 112.908 232.707 112.935 232.762 112.99C232.816 113.044 232.843 113.11 232.843 113.187C232.843 113.264 232.816 113.33 232.762 113.384ZM232.373 116.982V114.081H232.756V116.982H232.373ZM235.107 114.452H234.271V116.211C234.271 116.369 234.302 116.483 234.364 116.553C234.426 116.619 234.519 116.654 234.642 116.657C234.766 116.657 234.921 116.654 235.107 116.646V116.982C234.7 117.044 234.395 117.015 234.19 116.895C233.988 116.775 233.888 116.547 233.888 116.211V114.452H233.278V114.081H233.888V113.384L234.271 113.268V114.081H235.107V114.452ZM236.134 113.384C236.08 113.438 236.014 113.465 235.937 113.465C235.859 113.465 235.793 113.438 235.739 113.384C235.685 113.33 235.658 113.264 235.658 113.187C235.658 113.11 235.685 113.044 235.739 112.99C235.793 112.935 235.859 112.908 235.937 112.908C236.014 112.908 236.08 112.935 236.134 112.99C236.188 113.044 236.215 113.11 236.215 113.187C236.215 113.264 236.188 113.33 236.134 113.384ZM235.745 116.982V114.081H236.128V116.982H235.745ZM239.436 114.081H239.819V116.982H239.436V116.414C239.169 116.839 238.779 117.052 238.264 117.052C237.85 117.052 237.496 116.905 237.202 116.611C236.912 116.317 236.767 115.957 236.767 115.532C236.767 115.106 236.912 114.746 237.202 114.452C237.496 114.158 237.85 114.011 238.264 114.011C238.779 114.011 239.169 114.224 239.436 114.649V114.081ZM237.481 116.35C237.701 116.57 237.972 116.681 238.293 116.681C238.614 116.681 238.885 116.57 239.106 116.35C239.326 116.125 239.436 115.853 239.436 115.532C239.436 115.21 239.326 114.94 239.106 114.719C238.885 114.495 238.614 114.382 238.293 114.382C237.972 114.382 237.701 114.495 237.481 114.719C237.26 114.94 237.15 115.21 237.15 115.532C237.15 115.853 237.26 116.125 237.481 116.35ZM242.168 114.452H241.333V116.211C241.333 116.369 241.364 116.483 241.426 116.553C241.487 116.619 241.58 116.654 241.704 116.657C241.828 116.657 241.983 116.654 242.168 116.646V116.982C241.762 117.044 241.456 117.015 241.251 116.895C241.05 116.775 240.95 116.547 240.95 116.211V114.452H240.34V114.081H240.95V113.384L241.333 113.268V114.081H242.168V114.452ZM243.972 114.011C244.401 114.011 244.747 114.164 245.011 114.469C245.277 114.771 245.411 115.129 245.411 115.543C245.411 115.586 245.407 115.646 245.399 115.723H242.852C242.89 116.017 243.014 116.251 243.223 116.425C243.436 116.596 243.697 116.681 244.007 116.681C244.227 116.681 244.417 116.636 244.575 116.547C244.738 116.454 244.86 116.334 244.941 116.187L245.277 116.385C245.15 116.59 244.976 116.752 244.755 116.872C244.535 116.992 244.283 117.052 244.001 117.052C243.544 117.052 243.173 116.909 242.886 116.623C242.6 116.336 242.457 115.973 242.457 115.532C242.457 115.098 242.598 114.736 242.881 114.446C243.163 114.156 243.527 114.011 243.972 114.011ZM243.972 114.382C243.67 114.382 243.416 114.473 243.211 114.655C243.01 114.833 242.89 115.065 242.852 115.352H245.016C244.978 115.046 244.86 114.808 244.662 114.638C244.465 114.468 244.235 114.382 243.972 114.382ZM248.516 112.92H248.899V116.982H248.516V116.414C248.249 116.839 247.858 117.052 247.343 117.052C246.929 117.052 246.575 116.905 246.281 116.611C245.991 116.317 245.846 115.957 245.846 115.532C245.846 115.106 245.991 114.746 246.281 114.452C246.575 114.158 246.929 114.011 247.343 114.011C247.858 114.011 248.249 114.224 248.516 114.649V112.92ZM246.56 116.35C246.781 116.57 247.051 116.681 247.372 116.681C247.694 116.681 247.964 116.57 248.185 116.35C248.406 116.125 248.516 115.853 248.516 115.532C248.516 115.21 248.406 114.94 248.185 114.719C247.964 114.495 247.694 114.382 247.372 114.382C247.051 114.382 246.781 114.495 246.56 114.719C246.339 114.94 246.229 115.21 246.229 115.532C246.229 115.853 246.339 116.125 246.56 116.35Z" fill="black"/>
</g>
</g>
<rect x="284.645" y="23.2146" width="47.5893" height="2.32143" rx="1.16071" fill="black" fill-opacity="0.12"/>
<rect x="284.645" y="53.3933" width="47.5893" height="2.32143" rx="1.16071" fill="black" fill-opacity="0.12"/>
<rect opacity="0.5" x="284.645" y="83.5718" width="47.5893" height="2.32143" rx="1.16071" fill="black" fill-opacity="0.12"/>
<rect opacity="0.1" x="284.645" y="113.75" width="47.5893" height="2.32143" rx="1.16071" fill="black" fill-opacity="0.12"/>
<g filter="url(#filter3_d_144_725)">
<rect x="163.118" y="99.3188" width="190.706" height="46.5892" rx="23.2946" fill="white"/>
<path d="M193.367 123.006C193.367 128.322 189.058 132.631 183.742 132.631C178.427 132.631 174.118 128.322 174.118 123.006C174.118 117.69 178.427 113.381 183.742 113.381C189.058 113.381 193.367 117.69 193.367 123.006Z" fill="#7F5D98"/>
<path d="M187.782 120.271L182.31 125.743L179.705 123.138" stroke="white" stroke-width="0.962481" stroke-miterlimit="10" stroke-linecap="round" stroke-linejoin="round"/>
<g clip-path="url(#clip5_144_725)">
<path d="M205.768 119.319L204.519 117.166H203.371V119.319H202.4V113.409H204.764C205.293 113.409 205.74 113.595 206.106 113.967C206.477 114.332 206.663 114.78 206.663 115.309C206.663 115.686 206.553 116.032 206.334 116.347C206.12 116.657 205.839 116.882 205.49 117.022L206.832 119.319H205.768ZM203.371 114.321V116.296H204.764C205.023 116.296 205.242 116.201 205.422 116.009C205.602 115.818 205.692 115.585 205.692 115.309C205.692 115.033 205.602 114.799 205.422 114.608C205.242 114.417 205.023 114.321 204.764 114.321H203.371ZM208.013 117.596C208.081 117.917 208.235 118.165 208.477 118.339C208.719 118.508 209.015 118.593 209.364 118.593C209.848 118.593 210.211 118.418 210.453 118.069L211.204 118.508C210.788 119.122 210.171 119.428 209.355 119.428C208.669 119.428 208.114 119.22 207.692 118.804C207.27 118.382 207.059 117.85 207.059 117.208C207.059 116.578 207.267 116.052 207.684 115.63C208.1 115.202 208.635 114.988 209.288 114.988C209.907 114.988 210.413 115.205 210.807 115.638C211.207 116.071 211.407 116.598 211.407 117.217C211.407 117.312 211.395 117.439 211.373 117.596H208.013ZM208.005 116.854H210.486C210.425 116.51 210.281 116.251 210.056 116.077C209.836 115.903 209.578 115.815 209.279 115.815C208.942 115.815 208.66 115.908 208.435 116.094C208.21 116.28 208.066 116.533 208.005 116.854ZM212.863 116.263C212.863 116.403 212.939 116.516 213.091 116.6C213.248 116.679 213.437 116.75 213.656 116.811C213.881 116.868 214.107 116.935 214.332 117.014C214.557 117.093 214.745 117.228 214.897 117.419C215.055 117.605 215.134 117.841 215.134 118.128C215.134 118.534 214.976 118.851 214.661 119.082C214.351 119.313 213.96 119.428 213.487 119.428C213.071 119.428 212.714 119.341 212.415 119.167C212.117 118.992 211.9 118.75 211.765 118.441L212.55 117.985C212.697 118.39 213.009 118.593 213.487 118.593C213.966 118.593 214.205 118.435 214.205 118.12C214.205 117.985 214.126 117.875 213.969 117.791C213.817 117.706 213.628 117.636 213.403 117.58C213.184 117.518 212.961 117.447 212.736 117.369C212.511 117.29 212.32 117.16 212.162 116.98C212.01 116.795 211.934 116.561 211.934 116.28C211.934 115.891 212.08 115.579 212.373 115.343C212.671 115.106 213.04 114.988 213.479 114.988C213.828 114.988 214.137 115.067 214.408 115.224C214.683 115.376 214.894 115.59 215.041 115.866L214.273 116.296C214.126 115.976 213.862 115.815 213.479 115.815C213.305 115.815 213.158 115.855 213.04 115.933C212.922 116.007 212.863 116.116 212.863 116.263ZM218.73 115.098H219.642V119.319H218.73V118.778C218.455 119.212 218.018 119.428 217.422 119.428C216.938 119.428 216.547 119.274 216.249 118.964C215.95 118.655 215.801 118.23 215.801 117.689V115.098H216.713V117.596C216.713 117.912 216.797 118.154 216.966 118.322C217.135 118.491 217.366 118.576 217.658 118.576C217.979 118.576 218.238 118.477 218.435 118.28C218.632 118.078 218.73 117.771 218.73 117.36V115.098ZM223.097 114.988C223.677 114.988 224.172 115.202 224.583 115.63C224.994 116.057 225.199 116.583 225.199 117.208C225.199 117.827 224.994 118.353 224.583 118.787C224.172 119.214 223.677 119.428 223.097 119.428C222.456 119.428 221.963 119.189 221.62 118.711V119.319H220.708V113.409H221.62V115.697C221.963 115.224 222.456 114.988 223.097 114.988ZM222 118.179C222.253 118.432 222.571 118.559 222.954 118.559C223.336 118.559 223.654 118.432 223.908 118.179C224.161 117.92 224.287 117.596 224.287 117.208C224.287 116.82 224.161 116.499 223.908 116.246C223.654 115.987 223.336 115.858 222.954 115.858C222.571 115.858 222.253 115.987 222 116.246C221.747 116.499 221.62 116.82 221.62 117.208C221.62 117.596 221.747 117.92 222 118.179ZM230.635 114.988C231.113 114.988 231.499 115.143 231.791 115.452C232.084 115.762 232.23 116.178 232.23 116.702V119.319H231.318V116.761C231.318 116.468 231.245 116.243 231.099 116.085C230.953 115.922 230.753 115.841 230.5 115.841C230.218 115.841 229.993 115.933 229.824 116.119C229.661 116.305 229.579 116.583 229.579 116.955V119.319H228.668V116.761C228.668 116.468 228.597 116.243 228.457 116.085C228.322 115.922 228.127 115.841 227.874 115.841C227.598 115.841 227.373 115.936 227.199 116.128C227.024 116.313 226.937 116.589 226.937 116.955V119.319H226.025V115.098H226.937V115.604C227.207 115.193 227.61 114.988 228.144 114.988C228.685 114.988 229.084 115.21 229.343 115.655C229.624 115.21 230.055 114.988 230.635 114.988ZM234.067 114.296C233.954 114.408 233.819 114.465 233.662 114.465C233.504 114.465 233.366 114.408 233.248 114.296C233.136 114.178 233.079 114.04 233.079 113.882C233.079 113.725 233.136 113.59 233.248 113.477C233.361 113.359 233.499 113.3 233.662 113.3C233.825 113.3 233.963 113.359 234.075 113.477C234.188 113.59 234.244 113.725 234.244 113.882C234.244 114.04 234.185 114.178 234.067 114.296ZM233.206 119.319V115.098H234.118V119.319H233.206ZM237.531 115.976H236.485V118.002C236.485 118.176 236.524 118.303 236.603 118.382C236.682 118.455 236.797 118.497 236.949 118.508C237.106 118.514 237.301 118.511 237.531 118.5V119.319C236.834 119.403 236.333 119.344 236.029 119.141C235.725 118.933 235.573 118.553 235.573 118.002V115.976H234.796V115.098H235.573V114.186L236.485 113.916V115.098H237.531V115.976ZM240.516 115.976H239.469V118.002C239.469 118.176 239.508 118.303 239.587 118.382C239.666 118.455 239.781 118.497 239.933 118.508C240.091 118.514 240.285 118.511 240.516 118.5V119.319C239.818 119.403 239.317 119.344 239.013 119.141C238.709 118.933 238.557 118.553 238.557 118.002V115.976H237.781V115.098H238.557V114.186L239.469 113.916V115.098H240.516V115.976ZM241.887 117.596C241.954 117.917 242.109 118.165 242.351 118.339C242.593 118.508 242.889 118.593 243.238 118.593C243.722 118.593 244.085 118.418 244.327 118.069L245.078 118.508C244.661 119.122 244.045 119.428 243.229 119.428C242.543 119.428 241.988 119.22 241.566 118.804C241.144 118.382 240.933 117.85 240.933 117.208C240.933 116.578 241.141 116.052 241.558 115.63C241.974 115.202 242.509 114.988 243.162 114.988C243.781 114.988 244.287 115.205 244.681 115.638C245.081 116.071 245.281 116.598 245.281 117.217C245.281 117.312 245.269 117.439 245.247 117.596H241.887ZM241.879 116.854H244.36C244.298 116.51 244.155 116.251 243.93 116.077C243.71 115.903 243.451 115.815 243.153 115.815C242.816 115.815 242.534 115.908 242.309 116.094C242.084 116.28 241.94 116.533 241.879 116.854ZM249.401 113.409H250.313V119.319H249.401V118.711C249.058 119.189 248.565 119.428 247.924 119.428C247.344 119.428 246.849 119.214 246.438 118.787C246.027 118.353 245.822 117.827 245.822 117.208C245.822 116.583 246.027 116.057 246.438 115.63C246.849 115.202 247.344 114.988 247.924 114.988C248.565 114.988 249.058 115.224 249.401 115.697V113.409ZM247.113 118.179C247.366 118.432 247.684 118.559 248.067 118.559C248.45 118.559 248.768 118.432 249.021 118.179C249.274 117.92 249.401 117.596 249.401 117.208C249.401 116.82 249.274 116.499 249.021 116.246C248.768 115.987 248.45 115.858 248.067 115.858C247.684 115.858 247.366 115.987 247.113 116.246C246.86 116.499 246.733 116.82 246.733 117.208C246.733 117.596 246.86 117.92 247.113 118.179Z" fill="#7F5D98"/>
<path d="M202.316 127.262H202.759V131.694H202.316V127.262ZM205.193 128.452C205.577 128.452 205.879 128.57 206.098 128.807C206.322 129.039 206.434 129.353 206.434 129.75V131.694H206.016V129.75C206.016 129.467 205.94 129.248 205.788 129.091C205.64 128.935 205.429 128.857 205.155 128.857C204.851 128.857 204.604 128.954 204.414 129.148C204.224 129.338 204.129 129.634 204.129 130.035V131.694H203.711V128.528H204.129V129.022C204.366 128.642 204.72 128.452 205.193 128.452ZM209.49 128.528H209.933L208.635 131.694H208.129L206.831 128.528H207.274L208.382 131.257L209.49 128.528ZM212.968 131.295C212.647 131.611 212.254 131.77 211.79 131.77C211.326 131.77 210.931 131.611 210.606 131.295C210.285 130.974 210.125 130.579 210.125 130.111C210.125 129.642 210.285 129.25 210.606 128.933C210.931 128.612 211.326 128.452 211.79 128.452C212.254 128.452 212.647 128.612 212.968 128.933C213.293 129.25 213.455 129.642 213.455 130.111C213.455 130.579 213.293 130.974 212.968 131.295ZM210.904 131.003C211.144 131.244 211.44 131.364 211.79 131.364C212.14 131.364 212.436 131.244 212.676 131.003C212.917 130.759 213.037 130.461 213.037 130.111C213.037 129.76 212.917 129.465 212.676 129.224C212.436 128.98 212.14 128.857 211.79 128.857C211.44 128.857 211.144 128.98 210.904 129.224C210.663 129.465 210.543 129.76 210.543 130.111C210.543 130.461 210.663 130.759 210.904 131.003ZM214.579 127.768C214.519 127.827 214.448 127.857 214.363 127.857C214.279 127.857 214.207 127.827 214.148 127.768C214.089 127.709 214.059 127.637 214.059 127.553C214.059 127.469 214.089 127.397 214.148 127.338C214.207 127.279 214.279 127.249 214.363 127.249C214.448 127.249 214.519 127.279 214.579 127.338C214.638 127.397 214.667 127.469 214.667 127.553C214.667 127.637 214.638 127.709 214.579 127.768ZM214.154 131.694V128.528H214.572V131.694H214.154ZM216.934 131.77C216.457 131.77 216.06 131.611 215.744 131.295C215.427 130.974 215.269 130.579 215.269 130.111C215.269 129.642 215.427 129.25 215.744 128.933C216.06 128.612 216.457 128.452 216.934 128.452C217.246 128.452 217.527 128.528 217.776 128.68C218.025 128.828 218.207 129.028 218.321 129.281L217.979 129.478C217.894 129.288 217.757 129.138 217.567 129.028C217.382 128.914 217.17 128.857 216.934 128.857C216.584 128.857 216.288 128.98 216.048 129.224C215.807 129.465 215.687 129.76 215.687 130.111C215.687 130.461 215.807 130.759 216.048 131.003C216.288 131.244 216.584 131.364 216.934 131.364C217.17 131.364 217.382 131.31 217.567 131.2C217.753 131.086 217.899 130.934 218.004 130.744L218.352 130.947C218.221 131.2 218.029 131.4 217.776 131.548C217.523 131.696 217.242 131.77 216.934 131.77ZM220.384 128.452C220.852 128.452 221.23 128.619 221.517 128.952C221.808 129.281 221.954 129.672 221.954 130.123C221.954 130.17 221.95 130.235 221.941 130.32H219.162C219.204 130.641 219.339 130.896 219.567 131.086C219.799 131.272 220.084 131.364 220.422 131.364C220.662 131.364 220.869 131.316 221.042 131.219C221.22 131.117 221.353 130.987 221.441 130.826L221.808 131.041C221.669 131.265 221.479 131.442 221.239 131.573C220.998 131.704 220.724 131.77 220.416 131.77C219.917 131.77 219.512 131.613 219.2 131.301C218.888 130.989 218.731 130.592 218.731 130.111C218.731 129.638 218.885 129.243 219.194 128.927C219.502 128.61 219.898 128.452 220.384 128.452ZM220.384 128.857C220.055 128.857 219.778 128.956 219.554 129.155C219.335 129.349 219.204 129.602 219.162 129.915H221.523C221.481 129.581 221.353 129.321 221.137 129.136C220.922 128.95 220.671 128.857 220.384 128.857ZM225.658 131.77C225.252 131.77 224.904 131.675 224.613 131.485C224.326 131.291 224.126 131.025 224.012 130.687L224.391 130.465C224.472 130.74 224.619 130.955 224.835 131.111C225.05 131.263 225.326 131.339 225.664 131.339C225.993 131.339 226.249 131.267 226.43 131.124C226.616 130.976 226.709 130.782 226.709 130.541C226.709 130.309 226.624 130.134 226.455 130.016C226.287 129.898 226.008 129.775 225.62 129.649C225.16 129.497 224.856 129.374 224.708 129.281C224.37 129.079 224.202 128.785 224.202 128.401C224.202 128.026 224.332 127.73 224.594 127.515C224.856 127.295 225.179 127.186 225.563 127.186C225.909 127.186 226.209 127.276 226.462 127.458C226.715 127.635 226.903 127.863 227.025 128.142L226.652 128.351C226.449 127.861 226.086 127.616 225.563 127.616C225.288 127.616 225.067 127.684 224.898 127.819C224.729 127.954 224.645 128.142 224.645 128.382C224.645 128.602 224.721 128.766 224.873 128.876C225.025 128.986 225.276 129.098 225.626 129.212C225.786 129.267 225.9 129.307 225.968 129.332C226.04 129.353 226.141 129.391 226.272 129.446C226.407 129.497 226.506 129.543 226.569 129.585C226.633 129.623 226.709 129.678 226.797 129.75C226.89 129.817 226.956 129.887 226.994 129.959C227.036 130.026 227.072 130.111 227.101 130.212C227.135 130.309 227.152 130.415 227.152 130.529C227.152 130.904 227.015 131.206 226.74 131.434C226.466 131.658 226.105 131.77 225.658 131.77ZM230.078 128.528H230.496V131.694H230.078V131.2C229.842 131.58 229.487 131.77 229.014 131.77C228.63 131.77 228.326 131.654 228.103 131.421C227.883 131.185 227.773 130.868 227.773 130.472V128.528H228.191V130.472C228.191 130.754 228.265 130.974 228.413 131.13C228.565 131.286 228.778 131.364 229.052 131.364C229.356 131.364 229.603 131.269 229.793 131.079C229.983 130.885 230.078 130.588 230.078 130.187V128.528ZM232.855 131.77C232.378 131.77 231.981 131.611 231.665 131.295C231.348 130.974 231.19 130.579 231.19 130.111C231.19 129.642 231.348 129.25 231.665 128.933C231.981 128.612 232.378 128.452 232.855 128.452C233.167 128.452 233.448 128.528 233.697 128.68C233.946 128.828 234.128 129.028 234.242 129.281L233.9 129.478C233.815 129.288 233.678 129.138 233.488 129.028C233.302 128.914 233.091 128.857 232.855 128.857C232.505 128.857 232.209 128.98 231.969 129.224C231.728 129.465 231.608 129.76 231.608 130.111C231.608 130.461 231.728 130.759 231.969 131.003C232.209 131.244 232.505 131.364 232.855 131.364C233.091 131.364 233.302 131.31 233.488 131.2C233.674 131.086 233.819 130.934 233.925 130.744L234.273 130.947C234.142 131.2 233.95 131.4 233.697 131.548C233.444 131.696 233.163 131.77 232.855 131.77ZM236.317 131.77C235.84 131.77 235.444 131.611 235.127 131.295C234.811 130.974 234.652 130.579 234.652 130.111C234.652 129.642 234.811 129.25 235.127 128.933C235.444 128.612 235.84 128.452 236.317 128.452C236.63 128.452 236.91 128.528 237.159 128.68C237.409 128.828 237.59 129.028 237.704 129.281L237.362 129.478C237.278 129.288 237.141 129.138 236.951 129.028C236.765 128.914 236.554 128.857 236.317 128.857C235.967 128.857 235.672 128.98 235.431 129.224C235.19 129.465 235.07 129.76 235.07 130.111C235.07 130.461 235.19 130.759 235.431 131.003C235.672 131.244 235.967 131.364 236.317 131.364C236.554 131.364 236.765 131.31 236.951 131.2C237.136 131.086 237.282 130.934 237.387 130.744L237.736 130.947C237.605 131.2 237.413 131.4 237.159 131.548C236.906 131.696 236.626 131.77 236.317 131.77ZM239.767 128.452C240.236 128.452 240.613 128.619 240.9 128.952C241.192 129.281 241.337 129.672 241.337 130.123C241.337 130.17 241.333 130.235 241.325 130.32H238.545C238.587 130.641 238.723 130.896 238.95 131.086C239.183 131.272 239.468 131.364 239.805 131.364C240.046 131.364 240.253 131.316 240.426 131.219C240.603 131.117 240.736 130.987 240.825 130.826L241.192 131.041C241.052 131.265 240.862 131.442 240.622 131.573C240.381 131.704 240.107 131.77 239.799 131.77C239.301 131.77 238.896 131.613 238.583 131.301C238.271 130.989 238.115 130.592 238.115 130.111C238.115 129.638 238.269 129.243 238.577 128.927C238.885 128.61 239.282 128.452 239.767 128.452ZM239.767 128.857C239.438 128.857 239.161 128.956 238.938 129.155C238.718 129.349 238.587 129.602 238.545 129.915H240.907C240.865 129.581 240.736 129.321 240.521 129.136C240.305 128.95 240.054 128.857 239.767 128.857ZM242.208 129.357C242.208 129.501 242.271 129.615 242.398 129.699C242.524 129.784 242.678 129.849 242.86 129.896C243.041 129.942 243.223 129.995 243.404 130.054C243.586 130.109 243.74 130.204 243.866 130.339C243.993 130.47 244.056 130.643 244.056 130.858C244.056 131.128 243.949 131.347 243.733 131.516C243.522 131.685 243.248 131.77 242.91 131.77C242.606 131.77 242.347 131.702 242.132 131.567C241.921 131.432 241.773 131.257 241.688 131.041L242.043 130.833C242.102 130.997 242.208 131.128 242.36 131.225C242.516 131.318 242.699 131.364 242.91 131.364C243.117 131.364 243.29 131.324 243.43 131.244C243.569 131.16 243.638 131.031 243.638 130.858C243.638 130.714 243.575 130.6 243.449 130.516C243.322 130.432 243.168 130.366 242.986 130.32C242.805 130.273 242.623 130.223 242.442 130.168C242.26 130.109 242.106 130.014 241.98 129.883C241.853 129.748 241.79 129.573 241.79 129.357C241.79 129.1 241.891 128.885 242.094 128.712C242.3 128.539 242.56 128.452 242.872 128.452C243.13 128.452 243.356 128.511 243.55 128.629C243.744 128.743 243.887 128.899 243.98 129.098L243.632 129.3C243.51 129.005 243.256 128.857 242.872 128.857C242.691 128.857 242.535 128.902 242.404 128.99C242.273 129.075 242.208 129.197 242.208 129.357ZM244.891 129.357C244.891 129.501 244.954 129.615 245.081 129.699C245.208 129.784 245.362 129.849 245.543 129.896C245.725 129.942 245.906 129.995 246.088 130.054C246.269 130.109 246.423 130.204 246.55 130.339C246.676 130.47 246.74 130.643 246.74 130.858C246.74 131.128 246.632 131.347 246.417 131.516C246.206 131.685 245.931 131.77 245.594 131.77C245.29 131.77 245.03 131.702 244.815 131.567C244.604 131.432 244.456 131.257 244.372 131.041L244.726 130.833C244.785 130.997 244.891 131.128 245.043 131.225C245.199 131.318 245.383 131.364 245.594 131.364C245.801 131.364 245.974 131.324 246.113 131.244C246.252 131.16 246.322 131.031 246.322 130.858C246.322 130.714 246.259 130.6 246.132 130.516C246.005 130.432 245.851 130.366 245.67 130.32C245.488 130.273 245.307 130.223 245.125 130.168C244.944 130.109 244.79 130.014 244.663 129.883C244.536 129.748 244.473 129.573 244.473 129.357C244.473 129.1 244.574 128.885 244.777 128.712C244.984 128.539 245.243 128.452 245.556 128.452C245.813 128.452 246.039 128.511 246.233 128.629C246.427 128.743 246.571 128.899 246.664 129.098L246.316 129.3C246.193 129.005 245.94 128.857 245.556 128.857C245.374 128.857 245.218 128.902 245.087 128.99C244.956 129.075 244.891 129.197 244.891 129.357ZM248.958 127.591C248.65 127.566 248.42 127.618 248.268 127.749C248.12 127.88 248.046 128.097 248.046 128.401V128.528H248.958V128.933H248.046V131.694H247.628V128.933H247.09V128.528H247.628V128.401C247.628 127.988 247.742 127.675 247.97 127.464C248.202 127.249 248.531 127.156 248.958 127.186V127.591ZM251.632 128.528H252.049V131.694H251.632V131.2C251.395 131.58 251.041 131.77 250.568 131.77C250.184 131.77 249.88 131.654 249.656 131.421C249.437 131.185 249.327 130.868 249.327 130.472V128.528H249.745V130.472C249.745 130.754 249.819 130.974 249.966 131.13C250.118 131.286 250.332 131.364 250.606 131.364C250.91 131.364 251.157 131.269 251.347 131.079C251.537 130.885 251.632 130.588 251.632 130.187V128.528ZM252.933 131.694V127.072H253.351V131.694H252.933ZM254.238 131.694V127.072H254.656V131.694H254.238ZM257.822 128.528H258.265L256.91 131.985C256.788 132.297 256.613 132.542 256.385 132.719C256.161 132.901 255.91 132.981 255.631 132.96V132.567C256.011 132.61 256.3 132.39 256.499 131.909L256.581 131.713L255.163 128.528H255.606L256.796 131.181L257.822 128.528ZM260.771 129.053C260.965 128.669 261.298 128.477 261.771 128.477V128.883C261.484 128.883 261.246 128.967 261.056 129.136C260.866 129.305 260.771 129.571 260.771 129.934V131.694H260.353V128.528H260.771V129.053ZM263.615 128.452C264.083 128.452 264.461 128.619 264.748 128.952C265.039 129.281 265.185 129.672 265.185 130.123C265.185 130.17 265.18 130.235 265.172 130.32H262.393C262.435 130.641 262.57 130.896 262.798 131.086C263.03 131.272 263.315 131.364 263.653 131.364C263.893 131.364 264.1 131.316 264.273 131.219C264.45 131.117 264.583 130.987 264.672 130.826L265.039 131.041C264.9 131.265 264.71 131.442 264.469 131.573C264.229 131.704 263.954 131.77 263.646 131.77C263.148 131.77 262.743 131.613 262.431 131.301C262.118 130.989 261.962 130.592 261.962 130.111C261.962 129.638 262.116 129.243 262.424 128.927C262.732 128.61 263.129 128.452 263.615 128.452ZM263.615 128.857C263.285 128.857 263.009 128.956 262.785 129.155C262.566 129.349 262.435 129.602 262.393 129.915H264.754C264.712 129.581 264.583 129.321 264.368 129.136C264.153 128.95 263.902 128.857 263.615 128.857ZM266.055 129.357C266.055 129.501 266.118 129.615 266.245 129.699C266.372 129.784 266.526 129.849 266.707 129.896C266.889 129.942 267.07 129.995 267.252 130.054C267.433 130.109 267.587 130.204 267.714 130.339C267.84 130.47 267.904 130.643 267.904 130.858C267.904 131.128 267.796 131.347 267.581 131.516C267.37 131.685 267.095 131.77 266.758 131.77C266.454 131.77 266.194 131.702 265.979 131.567C265.768 131.432 265.62 131.257 265.536 131.041L265.89 130.833C265.949 130.997 266.055 131.128 266.207 131.225C266.363 131.318 266.547 131.364 266.758 131.364C266.965 131.364 267.138 131.324 267.277 131.244C267.416 131.16 267.486 131.031 267.486 130.858C267.486 130.714 267.423 130.6 267.296 130.516C267.169 130.432 267.015 130.366 266.834 130.32C266.652 130.273 266.471 130.223 266.289 130.168C266.108 130.109 265.954 130.014 265.827 129.883C265.7 129.748 265.637 129.573 265.637 129.357C265.637 129.1 265.738 128.885 265.941 128.712C266.148 128.539 266.407 128.452 266.72 128.452C266.977 128.452 267.203 128.511 267.397 128.629C267.591 128.743 267.735 128.899 267.828 129.098L267.48 129.3C267.357 129.005 267.104 128.857 266.72 128.857C266.538 128.857 266.382 128.902 266.251 128.99C266.12 129.075 266.055 129.197 266.055 129.357ZM270.798 128.528H271.216V131.694H270.798V131.2C270.562 131.58 270.208 131.77 269.735 131.77C269.351 131.77 269.047 131.654 268.823 131.421C268.604 131.185 268.494 130.868 268.494 130.472V128.528H268.912V130.472C268.912 130.754 268.986 130.974 269.133 131.13C269.285 131.286 269.498 131.364 269.773 131.364C270.077 131.364 270.324 131.269 270.514 131.079C270.704 130.885 270.798 130.588 270.798 130.187V128.528ZM273.797 128.452C274.249 128.452 274.633 128.612 274.949 128.933C275.27 129.254 275.431 129.646 275.431 130.111C275.431 130.575 275.27 130.968 274.949 131.288C274.633 131.609 274.249 131.77 273.797 131.77C273.236 131.77 272.809 131.537 272.518 131.073V131.694H272.1V127.262H272.518V129.148C272.809 128.684 273.236 128.452 273.797 128.452ZM272.879 131.003C273.12 131.244 273.415 131.364 273.765 131.364C274.116 131.364 274.411 131.244 274.652 131.003C274.892 130.759 275.013 130.461 275.013 130.111C275.013 129.76 274.892 129.465 274.652 129.224C274.411 128.98 274.116 128.857 273.765 128.857C273.415 128.857 273.12 128.98 272.879 129.224C272.638 129.465 272.518 129.76 272.518 130.111C272.518 130.461 272.638 130.759 272.879 131.003ZM279.5 128.452C279.854 128.452 280.139 128.566 280.355 128.794C280.574 129.022 280.684 129.33 280.684 129.718V131.694H280.266V129.718C280.266 129.444 280.194 129.233 280.051 129.085C279.911 128.933 279.726 128.857 279.494 128.857C279.232 128.857 279.019 128.946 278.854 129.123C278.694 129.296 278.614 129.568 278.614 129.94V131.694H278.196V129.718C278.196 129.44 278.128 129.227 277.993 129.079C277.862 128.931 277.683 128.857 277.455 128.857C277.202 128.857 276.986 128.946 276.809 129.123C276.632 129.3 276.543 129.573 276.543 129.94V131.694H276.125V128.528H276.543V128.99C276.771 128.631 277.094 128.452 277.512 128.452C277.968 128.452 278.289 128.644 278.474 129.028C278.702 128.644 279.044 128.452 279.5 128.452ZM281.916 127.768C281.857 127.827 281.785 127.857 281.701 127.857C281.617 127.857 281.545 127.827 281.486 127.768C281.427 127.709 281.397 127.637 281.397 127.553C281.397 127.469 281.427 127.397 281.486 127.338C281.545 127.279 281.617 127.249 281.701 127.249C281.785 127.249 281.857 127.279 281.916 127.338C281.975 127.397 282.005 127.469 282.005 127.553C282.005 127.637 281.975 127.709 281.916 127.768ZM281.492 131.694V128.528H281.91V131.694H281.492ZM284.474 128.933H283.563V130.852C283.563 131.025 283.597 131.149 283.664 131.225C283.732 131.297 283.833 131.335 283.968 131.339C284.103 131.339 284.272 131.335 284.474 131.326V131.694C284.031 131.761 283.698 131.729 283.474 131.599C283.255 131.468 283.145 131.219 283.145 130.852V128.933H282.48V128.528H283.145V127.768L283.563 127.642V128.528H284.474V128.933ZM286.657 128.933H285.745V130.852C285.745 131.025 285.779 131.149 285.847 131.225C285.914 131.297 286.015 131.335 286.151 131.339C286.286 131.339 286.454 131.335 286.657 131.326V131.694C286.214 131.761 285.88 131.729 285.657 131.599C285.437 131.468 285.327 131.219 285.327 130.852V128.933H284.663V128.528H285.327V127.768L285.745 127.642V128.528H286.657V128.933ZM288.624 128.452C289.093 128.452 289.471 128.619 289.758 128.952C290.049 129.281 290.194 129.672 290.194 130.123C290.194 130.17 290.19 130.235 290.182 130.32H287.402C287.445 130.641 287.58 130.896 287.808 131.086C288.04 131.272 288.325 131.364 288.662 131.364C288.903 131.364 289.11 131.316 289.283 131.219C289.46 131.117 289.593 130.987 289.682 130.826L290.049 131.041C289.91 131.265 289.72 131.442 289.479 131.573C289.238 131.704 288.964 131.77 288.656 131.77C288.158 131.77 287.753 131.613 287.44 131.301C287.128 130.989 286.972 130.592 286.972 130.111C286.972 129.638 287.126 129.243 287.434 128.927C287.742 128.61 288.139 128.452 288.624 128.452ZM288.624 128.857C288.295 128.857 288.019 128.956 287.795 129.155C287.575 129.349 287.445 129.602 287.402 129.915H289.764C289.722 129.581 289.593 129.321 289.378 129.136C289.162 128.95 288.911 128.857 288.624 128.857ZM293.582 127.262H293.999V131.694H293.582V131.073C293.29 131.537 292.864 131.77 292.303 131.77C291.851 131.77 291.465 131.609 291.144 131.288C290.828 130.968 290.669 130.575 290.669 130.111C290.669 129.646 290.828 129.254 291.144 128.933C291.465 128.612 291.851 128.452 292.303 128.452C292.864 128.452 293.29 128.684 293.582 129.148V127.262ZM291.448 131.003C291.689 131.244 291.984 131.364 292.334 131.364C292.685 131.364 292.98 131.244 293.221 131.003C293.461 130.759 293.582 130.461 293.582 130.111C293.582 129.76 293.461 129.465 293.221 129.224C292.98 128.98 292.685 128.857 292.334 128.857C291.984 128.857 291.689 128.98 291.448 129.224C291.207 129.465 291.087 129.76 291.087 130.111C291.087 130.461 291.207 130.759 291.448 131.003Z" fill="#7F5D98"/>
</g>
<rect x="307.815" y="114.85" width="33.8122" height="16.3123" rx="8.15615" stroke="#7F5D98" stroke-width="0.687487"/>
<path d="M317.768 126.006L315.763 120.231H316.802L318.337 124.859L319.88 120.231H320.911L318.906 126.006H317.768ZM322.15 121.097C322.04 121.207 321.908 121.262 321.754 121.262C321.6 121.262 321.466 121.207 321.35 121.097C321.24 120.982 321.185 120.847 321.185 120.693C321.185 120.539 321.24 120.407 321.35 120.297C321.46 120.182 321.595 120.124 321.754 120.124C321.914 120.124 322.049 120.182 322.159 120.297C322.269 120.407 322.324 120.539 322.324 120.693C322.324 120.847 322.266 120.982 322.15 121.097ZM321.309 126.006V121.881H322.2V126.006H321.309ZM323.936 124.323C324.002 124.637 324.153 124.879 324.389 125.049C324.626 125.214 324.915 125.297 325.256 125.297C325.729 125.297 326.083 125.126 326.32 124.785L327.054 125.214C326.647 125.814 326.045 126.113 325.247 126.113C324.576 126.113 324.035 125.91 323.622 125.503C323.21 125.09 323.003 124.571 323.003 123.944C323.003 123.328 323.207 122.813 323.614 122.401C324.021 121.983 324.543 121.774 325.181 121.774C325.786 121.774 326.281 121.986 326.666 122.409C327.057 122.833 327.252 123.347 327.252 123.952C327.252 124.045 327.241 124.169 327.219 124.323H323.936ZM323.927 123.597H326.353C326.292 123.262 326.152 123.009 325.932 122.838C325.718 122.668 325.465 122.582 325.173 122.582C324.843 122.582 324.568 122.673 324.348 122.855C324.128 123.036 323.988 123.284 323.927 123.597ZM332.627 121.881H333.567L332.272 126.006H331.398L330.54 123.226L329.673 126.006H328.799L327.504 121.881H328.444L329.244 124.727L330.111 121.881H330.96L331.818 124.727L332.627 121.881Z" fill="#7F5D98"/>
</g>
<defs>
<filter id="filter0_d_144_725" x="8.10611" y="7.05586" width="126.956" height="148.658" filterUnits="userSpaceOnUse" color-interpolation-filters="sRGB">
<feFlood flood-opacity="0" result="BackgroundImageFix"/>
<feColorMatrix in="SourceAlpha" type="matrix" values="0 0 0 0 0 0 0 0 0 0 0 0 0 0 0 0 0 0 127 0" result="hardAlpha"/>
<feOffset dx="7.17949" dy="5.38462"/>
<feGaussianBlur stdDeviation="6.28205"/>
<feComposite in2="hardAlpha" operator="out"/>
<feColorMatrix type="matrix" values="0 0 0 0 0 0 0 0 0 0 0 0 0 0 0 0 0 0 0.12 0"/>
<feBlend mode="normal" in2="BackgroundImageFix" result="effect1_dropShadow_144_725"/>
<feBlend mode="normal" in="SourceGraphic" in2="effect1_dropShadow_144_725" result="shape"/>
</filter>
<filter id="filter1_d_144_725" x="97.9087" y="14.2354" width="21.5187" height="24.5795" filterUnits="userSpaceOnUse" color-interpolation-filters="sRGB">
<feFlood flood-opacity="0" result="BackgroundImageFix"/>
<feColorMatrix in="SourceAlpha" type="matrix" values="0 0 0 0 0 0 0 0 0 0 0 0 0 0 0 0 0 0 127 0" result="hardAlpha"/>
<feOffset dx="2.61174" dy="2.61174"/>
<feGaussianBlur stdDeviation="0.652935"/>
<feComposite in2="hardAlpha" operator="out"/>
<feColorMatrix type="matrix" values="0 0 0 0 0 0 0 0 0 0 0 0 0 0 0 0 0 0 0.08 0"/>
<feBlend mode="normal" in2="BackgroundImageFix" result="effect1_dropShadow_144_725"/>
<feBlend mode="normal" in="BackgroundImageFix" in2="effect1_dropShadow_144_725" result="BackgroundImageFix"/>
<feBlend mode="normal" in="SourceGraphic" in2="BackgroundImageFix" result="shape"/>
</filter>
<filter id="filter2_f_144_725" x="2.86102e-05" y="80.9082" width="128.235" height="9.26459" filterUnits="userSpaceOnUse" color-interpolation-filters="sRGB">
<feFlood flood-opacity="0" result="BackgroundImageFix"/>
<feBlend mode="normal" in="SourceGraphic" in2="BackgroundImageFix" result="shape"/>
<feGaussianBlur stdDeviation="2.05882" result="effect1_foregroundBlur_144_725"/>
</filter>
<filter id="filter3_d_144_725" x="156.786" y="90.8772" width="220.252" height="76.135" filterUnits="userSpaceOnUse" color-interpolation-filters="sRGB">
<feFlood flood-opacity="0" result="BackgroundImageFix"/>
<feColorMatrix in="SourceAlpha" type="matrix" values="0 0 0 0 0 0 0 0 0 0 0 0 0 0 0 0 0 0 127 0" result="hardAlpha"/>
<feOffset dx="8.4417" dy="6.33127"/>
<feGaussianBlur stdDeviation="7.38648"/>
<feComposite in2="hardAlpha" operator="out"/>
<feColorMatrix type="matrix" values="0 0 0 0 0 0 0 0 0 0 0 0 0 0 0 0 0 0 0.12 0"/>
<feBlend mode="normal" in2="BackgroundImageFix" result="effect1_dropShadow_144_725"/>
<feBlend mode="normal" in="SourceGraphic" in2="effect1_dropShadow_144_725" result="shape"/>
</filter>
<linearGradient id="paint0_linear_144_725" x1="64.4049" y1="14.2354" x2="64.4049" y2="137.765" gradientUnits="userSpaceOnUse">
<stop stop-color="white"/>
<stop offset="1" stop-color="white"/>
</linearGradient>
<linearGradient id="paint1_linear_144_725" x1="100.073" y1="32.9427" x2="114.962" y2="19.1789" gradientUnits="userSpaceOnUse">
<stop stop-color="#ACA7F6"/>
<stop offset="1" stop-color="#C0B7F9"/>
</linearGradient>
<linearGradient id="paint2_linear_144_725" x1="64.1177" y1="49.5405" x2="64.1177" y2="85.5405" gradientUnits="userSpaceOnUse">
<stop offset="0.102095" stop-color="#987AAE" stop-opacity="0"/>
<stop offset="0.4542" stop-color="#987AAE" stop-opacity="0.15"/>
<stop offset="1" stop-color="#987AAE"/>
</linearGradient>
<linearGradient id="paint3_linear_144_725" x1="258.819" y1="0" x2="258.819" y2="130" gradientUnits="userSpaceOnUse">
<stop offset="0.603533" stop-color="white"/>
<stop offset="1" stop-color="white" stop-opacity="0"/>
</linearGradient>
<clipPath id="clip0_144_725">
<rect width="70.2232" height="21.1607" fill="white" transform="translate(185.404 9.28613)"/>
</clipPath>
<clipPath id="clip1_144_725">
<rect width="43" height="21.1607" fill="white" transform="translate(212.368 9.28613)"/>
</clipPath>
<clipPath id="clip2_144_725">
<rect width="54" height="21.1607" fill="white" transform="translate(212.368 39.4646)"/>
</clipPath>
<clipPath id="clip3_144_725">
<rect width="53" height="21.1607" fill="white" transform="translate(212.368 69.6433)"/>
</clipPath>
<clipPath id="clip4_144_725">
<rect width="37" height="21.1607" fill="white" transform="translate(212.368 99.8218)"/>
</clipPath>
<clipPath id="clip5_144_725">
<rect width="93" height="25.375" fill="white" transform="translate(201.809 110.319)"/>
</clipPath>
</defs>
</svg>
