<svg width="32" height="24" viewBox="0 0 32 24" fill="none" xmlns="http://www.w3.org/2000/svg">
<g clip-path="url(#clip0_104_1951)">
<mask id="mask0_104_1951" style="mask-type:luminance" maskUnits="userSpaceOnUse" x="0" y="0" width="32" height="24">
<path d="M0 0H32V24H0V0Z" fill="white"/>
</mask>
<g mask="url(#mask0_104_1951)">
<path d="M0 0H32V24H0V0Z" fill="#CC0000"/>
<path d="M0 0H32V1.715H0V0Z" fill="#CC0000"/>
<path d="M0 1.71484H32V3.42984H0V1.71484Z" fill="white"/>
<path d="M0 3.43066H32V5.14566H0V3.43066Z" fill="#CC0000"/>
<path d="M0 5.14453H32V6.84953H0V5.14453Z" fill="white"/>
<path d="M0 6.85547H32V8.57047H0V6.85547Z" fill="#CC0000"/>
<path d="M0 8.56934H32V10.2843H0V8.56934Z" fill="white"/>
<path d="M0 10.2852H32V12.0002H0V10.2852Z" fill="#CC0000"/>
<path d="M0 12H32V13.715H0V12Z" fill="white"/>
<path d="M0 13.7148H32V15.4298H0V13.7148Z" fill="#CC0000"/>
<path d="M0 15.4307H32V17.1457H0V15.4307Z" fill="white"/>
<path d="M0 17.1445H32V18.8495H0V17.1445Z" fill="#CC0000"/>
<path d="M0 18.8555H32V20.5705H0V18.8555Z" fill="white"/>
<path d="M0 20.5693H32V22.2843H0V20.5693Z" fill="#CC0000"/>
<path d="M0 22.2852H32V24.0002H0V22.2852Z" fill="white"/>
<path d="M0 0.0253906H16V13.7404H0V0.0253906Z" fill="#000066"/>
<path d="M10.3749 3.69005L10.6749 5.72505L11.8249 4.02505L11.2049 5.98505L12.9799 4.94505L11.5749 6.44505L13.6249 6.28505L11.7099 7.02505L13.6249 7.76505L11.5749 7.60505L12.9799 9.10505L11.2049 8.06505L11.8199 10.03L10.6699 8.32505L10.3699 10.36L10.0749 8.32505L8.92488 10.025L9.54488 8.06505L7.76988 9.10505L9.16988 7.60505L7.11988 7.76505L9.03988 7.02505L7.12488 6.28505L9.17488 6.44505L7.76988 4.94505L9.54488 5.98505L8.92488 4.02005L10.0749 5.72505L10.3749 3.69005ZM8.70988 3.77505C8.16856 3.53281 7.57518 3.43005 6.98393 3.47615C6.39268 3.52225 5.8224 3.71573 5.32516 4.03894C4.82793 4.36214 4.41958 4.80476 4.13742 5.32638C3.85526 5.848 3.70827 6.432 3.70988 7.02505C3.70827 7.61809 3.85526 8.20209 4.13742 8.72371C4.41958 9.24533 4.82793 9.68795 5.32516 10.0112C5.8224 10.3344 6.39268 10.5278 6.98393 10.5739C7.57518 10.62 8.16856 10.5173 8.70988 10.275C8.11212 10.7044 7.40747 10.9606 6.67349 11.0153C5.93952 11.07 5.20469 10.9211 4.54988 10.585C3.89583 10.2485 3.34722 9.73819 2.96439 9.11012C2.58155 8.48206 2.3793 7.76059 2.37988 7.02505C2.38013 6.28968 2.58308 5.56862 2.96644 4.94109C3.3498 4.31356 3.89873 3.80385 4.55291 3.46798C5.20708 3.1321 5.94119 2.98306 6.67455 3.03724C7.40792 3.09141 8.11216 3.3467 8.70988 3.77505Z" fill="#FFCC00"/>
</g>
</g>
<defs>
<clipPath id="clip0_104_1951">
<rect width="32" height="24" fill="white"/>
</clipPath>
</defs>
</svg>
